<svg width="84" height="96" viewBox="0 0 84 96" fill="none" xmlns="http://www.w3.org/2000/svg">
<g clip-path="url(#clip0_394_4163)">
<path d="M36 96C62.5097 96 84 74.5097 84 48C84 21.4903 62.5097 0 36 0C9.49033 0 -12 21.4903 -12 48C-12 74.5097 9.49033 96 36 96Z" fill="#E2EA55"/>
<path d="M72.806 78.7898C64.7793 75.2564 60.0006 64.1284 60.0006 48.0004C60.0006 31.8724 64.7793 20.7444 72.806 17.2111C71.6148 15.8021 70.3433 14.463 68.998 13.2004C61.0833 17.6138 54.6673 28.2084 54.6673 48.0004C54.6673 67.7898 61.0833 78.3871 68.998 82.8004C70.3366 81.5284 71.622 80.2058 72.806 78.7898ZM17.334 48.0004C17.334 28.2111 10.918 17.6138 3.00331 13.2031C1.65803 14.4648 0.386589 15.8031 -0.804688 17.2111C7.22198 20.7471 12.0006 31.8724 12.0006 48.0004C12.0006 64.1284 7.22198 75.2538 -0.804688 78.7898C0.381979 80.2058 1.66465 81.5284 3.00331 82.8004C10.9153 78.3871 17.334 67.7898 17.334 48.0004Z" fill="#BECA28"/>
<path d="M2.02157 27.1047C1.38957 27.1047 0.802901 27.0513 0.285568 26.9553C-0.409653 26.8252 -1.0247 26.4242 -1.42428 25.8406C-1.62213 25.5516 -1.76113 25.2265 -1.83333 24.8838C-1.90554 24.5411 -1.90953 24.1876 -1.8451 23.8433C-1.78066 23.4991 -1.64906 23.1709 -1.45779 22.8775C-1.26653 22.5842 -1.01935 22.3313 -0.730374 22.1335C-0.146761 21.7339 0.571681 21.5825 1.2669 21.7127C2.41357 21.918 8.4429 21.7287 9.66157 15.6433C9.80219 14.9515 10.2114 14.3437 10.7995 13.9531C11.3876 13.5625 12.1066 13.4211 12.7988 13.5598C13.491 13.6985 14.1 14.1061 14.4922 14.6931C14.8843 15.2801 15.0277 15.9987 14.8909 16.6913C13.3389 24.4567 6.52024 27.1047 2.02157 27.1047ZM5.8589 38.2833C4.44557 38.2247 3.35757 37.3153 3.34957 35.886C3.34157 34.414 4.51757 33.5047 5.98957 33.4967C5.98957 33.4967 12.8242 33.6913 16.5576 27.8193C16.7471 27.5255 16.9928 27.272 17.2806 27.0734C17.5684 26.8748 17.8926 26.7351 18.2346 26.6622C18.5766 26.5894 18.9296 26.5848 19.2733 26.6489C19.6171 26.7129 19.9448 26.8442 20.2376 27.0353C21.4802 27.8247 21.8456 29.4913 21.0562 30.734C15.7602 39.07 5.90157 38.286 5.8589 38.2833ZM11.7682 51.286C9.81357 51.1927 8.0189 50.7473 6.6829 50.0327C6.07041 49.6934 5.61592 49.1269 5.41755 48.4554C5.21919 47.7839 5.29287 47.0614 5.62269 46.4438C5.9525 45.8262 6.51199 45.363 7.18035 45.1544C7.8487 44.9458 8.5723 45.0084 9.1949 45.3287C11.3549 46.4807 16.9576 46.3393 19.2616 43.11C19.4649 42.8248 19.7223 42.5824 20.0193 42.3966C20.3163 42.2109 20.6469 42.0855 20.9923 42.0276C21.3378 41.9696 21.6912 41.9803 22.0325 42.0589C22.3739 42.1376 22.6963 42.2827 22.9816 42.486C23.2668 42.6893 23.5092 42.9468 23.6949 43.2437C23.8806 43.5407 24.0061 43.8713 24.064 44.2168C24.122 44.5622 24.1113 44.9157 24.0326 45.257C23.954 45.5983 23.8089 45.9208 23.6056 46.206C20.8429 50.0753 15.9389 51.486 11.7682 51.286ZM15.7629 66.0407C11.6189 66.0407 7.77624 64.1767 5.29357 62.1047C4.75005 61.652 4.4086 61.002 4.34434 60.2976C4.28008 59.5932 4.49827 58.8922 4.9509 58.3487C5.40354 57.8051 6.05355 57.4637 6.75793 57.3994C7.46232 57.3352 8.16338 57.5534 8.7069 58.006C9.22423 58.4407 13.9122 62.182 18.7922 60.0993C19.4412 59.8345 20.1683 59.8358 20.8162 60.103C21.4642 60.3702 21.981 60.8817 22.2547 61.5269C22.5284 62.1721 22.5371 62.8992 22.2789 63.5508C22.0207 64.2024 21.5163 64.7261 20.8749 65.0087C19.2587 65.6962 17.5193 66.0473 15.7629 66.0407ZM14.4456 80.1127H14.3709C7.69357 80.1127 1.89357 75.926 -0.386432 71.8247C-1.10377 70.5393 -0.637098 69.0407 0.648235 68.326C1.93623 67.606 3.56024 68.1393 4.2749 69.4247C5.56557 71.7473 9.59757 75.1153 14.5176 75.2513C15.9896 75.294 17.1496 76.286 17.1096 77.7553C17.0696 79.2007 15.8856 80.1127 14.4456 80.1127ZM58.2242 81.4993C57.8294 81.4996 57.4394 81.4121 57.0824 81.2433C56.7254 81.0744 56.4104 80.8284 56.1601 80.523C55.9098 80.2176 55.7305 79.8604 55.635 79.4772C55.5396 79.094 55.5304 78.6945 55.6082 78.3073C57.3789 69.4487 65.9922 67.2407 70.2162 68.0433C70.911 68.174 71.5254 68.5753 71.9245 69.1588C72.3235 69.7424 72.4745 70.4605 72.3442 71.1553C72.2815 71.5003 72.1509 71.8294 71.9601 72.1236C71.7693 72.4178 71.522 72.6711 71.2325 72.8691C70.9431 73.067 70.6172 73.2055 70.2739 73.2766C69.9305 73.3477 69.5765 73.35 69.2322 73.2833C68.0989 73.07 62.0589 73.2647 60.8402 79.3527C60.7199 79.9579 60.3934 80.5027 59.9164 80.8941C59.4393 81.2856 58.8413 81.4995 58.2242 81.4993ZM50.7709 66.694C50.3189 66.5743 49.9063 66.338 49.5745 66.0085C49.2427 65.6791 49.0033 65.2682 48.8804 64.8171C48.7575 64.366 48.7554 63.8905 48.8742 63.4383C48.9931 62.9861 49.2287 62.5731 49.5576 62.2407C56.5122 55.23 62.0749 56.4247 65.7549 57.214L66.0456 57.278C66.7278 57.4344 67.3211 57.8528 67.6976 58.4429C68.074 59.0329 68.2034 59.7473 68.0578 60.4319C67.9122 61.1165 67.5033 61.7164 66.9193 62.1022C66.3353 62.488 65.6231 62.6287 64.9362 62.494L64.6349 62.4273C61.4909 61.7527 58.2429 61.054 53.3442 65.9927C53.0146 66.3252 52.6033 66.5651 52.1516 66.6882C51.6998 66.8113 51.2236 66.8133 50.7709 66.694ZM49.5656 51.5073C49.0948 51.4212 48.6559 51.2099 48.2949 50.8957C47.9339 50.5815 47.6641 50.176 47.5139 49.7216C47.3636 49.2672 47.3384 48.7808 47.4408 48.3133C47.5433 47.8458 47.7697 47.4145 48.0962 47.0647C52.8589 41.958 61.5042 42.7207 65.3709 45.4913C65.6556 45.6953 65.8973 45.9534 66.0823 46.2508C66.2673 46.5482 66.3919 46.8791 66.449 47.2247C66.506 47.5703 66.4945 47.9237 66.415 48.2648C66.3355 48.6059 66.1896 48.928 65.9856 49.2127C65.7816 49.4974 65.5235 49.7391 65.2261 49.9241C64.9287 50.1091 64.5978 50.2336 64.2522 50.2907C63.9066 50.3478 63.5532 50.3362 63.2121 50.2567C62.871 50.1772 62.5489 50.0313 62.2642 49.8273C60.2776 48.4007 54.7016 47.806 51.9922 50.7047C51.6873 51.031 51.3053 51.2754 50.8813 51.4157C50.4573 51.5559 50.0049 51.5874 49.5656 51.5073ZM64.7762 37.4993C64.1525 37.4991 63.5486 37.2801 63.0696 36.8807C62.5522 36.4487 57.8642 32.7233 52.9869 34.7873C52.3425 35.0294 51.6295 35.0131 50.9968 34.7419C50.3641 34.4707 49.8606 33.9656 49.5915 33.332C49.3224 32.6985 49.3084 31.9854 49.5525 31.3418C49.7966 30.6982 50.28 30.1737 50.9016 29.878C56.8189 27.366 62.9949 29.8753 66.4856 32.7847C66.9065 33.1357 67.209 33.6079 67.352 34.1369C67.495 34.666 67.4715 35.2263 67.2847 35.7416C67.0979 36.2568 66.7569 36.702 66.308 37.0165C65.8592 37.3311 65.3243 37.4996 64.7762 37.4993ZM69.9469 26.8887C69.4711 26.8892 69.0037 26.7623 68.5935 26.5213C68.1832 26.2803 67.8448 25.9339 67.6136 25.518C66.3229 23.1927 62.2909 19.8567 57.3709 19.7207C55.8962 19.6807 54.7389 18.3713 54.7762 16.8967C54.8189 15.4513 56.0029 14.222 57.4402 14.222H57.5149C64.1949 14.222 69.9949 18.7393 72.2722 22.8407C72.617 23.4657 72.7015 24.2015 72.5073 24.8884C72.3131 25.5753 71.8559 26.158 71.2349 26.51C70.8449 26.744 70.4015 26.8743 69.9469 26.8887Z" fill="#DD2E44"/>
</g>
<defs>
<clipPath id="clip0_394_4163">
<rect width="96" height="96" fill="white" transform="translate(-12)"/>
</clipPath>
</defs>
</svg>
