<svg width="64" height="64" viewBox="0 0 64 64" fill="none" xmlns="http://www.w3.org/2000/svg">
<g clip-path="url(#clip0_394_4148)">
<path d="M32 64C49.6731 64 64 49.6731 64 32C64 14.3269 49.6731 0 32 0C14.3269 0 0 14.3269 0 32C0 49.6731 14.3269 64 32 64Z" fill="#E1E8ED"/>
<path d="M56.5373 52.5265C51.1862 50.171 48.0004 42.7523 48.0004 32.0003C48.0004 21.2483 51.1862 13.8296 56.5373 11.4741C55.7431 10.5348 54.8955 9.64202 53.9986 8.80029C48.7222 11.7425 44.4448 18.8056 44.4448 32.0003C44.4448 45.1932 48.7222 52.2581 53.9986 55.2003C54.8911 54.3523 55.7479 53.4705 56.5373 52.5265ZM19.5559 32.0003C19.5559 18.8074 15.2786 11.7425 10.0022 8.80207C9.10531 9.64322 8.25769 10.5354 7.4635 11.4741C12.8146 13.8314 16.0004 21.2483 16.0004 32.0003C16.0004 42.7523 12.8146 50.1692 7.4635 52.5265C8.25461 53.4705 9.10972 54.3523 10.0022 55.2003C15.2768 52.2581 19.5559 45.1932 19.5559 32.0003Z" fill="#B3BEC4"/>
<path d="M9.05259 18.0694C8.63125 18.0694 8.24014 18.0338 7.89525 17.9698C7.43177 17.883 7.02174 17.6157 6.75535 17.2267C6.62345 17.034 6.53079 16.8173 6.48265 16.5888C6.43452 16.3603 6.43185 16.1246 6.47481 15.8951C6.51777 15.6656 6.6055 15.4469 6.73301 15.2513C6.86052 15.0557 7.02531 14.8871 7.21796 14.7552C7.60703 14.4889 8.086 14.3879 8.54948 14.4747C9.31392 14.6116 13.3335 14.4854 14.1459 10.4285C14.2386 9.96617 14.5111 9.55961 14.9035 9.29822C15.0978 9.1688 15.3157 9.07891 15.5447 9.0337C15.7738 8.98848 16.0095 8.98882 16.2384 9.03469C16.4673 9.08057 16.6849 9.17108 16.8788 9.30106C17.0728 9.43105 17.2392 9.59795 17.3686 9.79225C17.498 9.98656 17.5879 10.2044 17.6331 10.4335C17.6784 10.6625 17.678 10.8982 17.6321 11.1271C16.5957 16.304 12.0517 18.0694 9.05259 18.0694ZM12.0748 25.1111C11.1326 25.1111 10.3824 24.5369 10.3361 23.584C10.2899 22.6045 11.0473 21.9645 12.0286 21.9183C12.0286 21.9183 16.5868 21.856 18.9068 17.84C19.0244 17.6389 19.1807 17.4631 19.3665 17.3227C19.5524 17.1823 19.7643 17.08 19.9898 17.0218C20.2154 16.9637 20.4503 16.9507 20.6809 16.9838C20.9115 17.0168 21.1333 17.0951 21.3335 17.2142C22.1833 17.7049 22.4748 18.8036 21.9824 19.6551C18.6917 25.3547 12.1033 25.1111 12.0748 25.1111ZM16.0001 34.2791C14.6953 34.2791 13.4864 34.0391 12.5726 33.6071C12.1464 33.4053 11.8177 33.0425 11.659 32.5984C11.5003 32.1543 11.5246 31.6654 11.7264 31.2391C11.9282 30.8129 12.291 30.4843 12.7351 30.3256C13.1792 30.1669 13.6681 30.1911 14.0944 30.3929C15.5699 31.0916 19.2961 30.8178 20.7255 28.5938C20.8517 28.3973 21.0153 28.2277 21.2071 28.0945C21.3988 27.9612 21.615 27.8671 21.8431 27.8174C22.0712 27.7677 22.3069 27.7635 22.5367 27.8049C22.7665 27.8463 22.9859 27.9325 23.1824 28.0587C23.3788 28.1849 23.5485 28.3485 23.6817 28.5403C23.8149 28.732 23.9091 28.9482 23.9588 29.1763C24.0084 29.4045 24.0127 29.6402 23.9713 29.8699C23.9299 30.0997 23.8437 30.3191 23.7175 30.5156C22.0037 33.184 18.7824 34.2791 16.0001 34.2791ZM18.0641 44.1014C15.3015 44.1014 12.7397 42.8587 11.0846 41.4774C10.9052 41.3279 10.7569 41.1447 10.6484 40.938C10.5398 40.7313 10.473 40.5052 10.4518 40.2727C10.4306 40.0402 10.4553 39.8057 10.5247 39.5828C10.5941 39.3599 10.7067 39.1528 10.8561 38.9734C11.0056 38.7939 11.1888 38.6457 11.3955 38.5371C11.6022 38.4286 11.8283 38.3618 12.0608 38.3405C12.2933 38.3193 12.5278 38.3441 12.7507 38.4135C12.9736 38.4829 13.1807 38.5955 13.3601 38.7449C13.705 39.0347 16.8304 41.5289 20.0837 40.1405C20.2987 40.0493 20.5296 40.0014 20.7631 39.9994C20.9967 39.9975 21.2283 40.0416 21.4448 40.1291C21.6613 40.2167 21.8584 40.3461 22.025 40.5098C22.1915 40.6736 22.3241 40.8686 22.4153 41.0836C22.5064 41.2986 22.5543 41.5295 22.5563 41.763C22.5582 41.9965 22.5142 42.2282 22.4266 42.4447C22.339 42.6612 22.2096 42.8583 22.0459 43.0248C21.8821 43.1913 21.6872 43.324 21.4721 43.4151C20.3938 43.8705 19.2347 44.1039 18.0641 44.1014ZM17.3335 53.3334H17.2837C12.8321 53.3334 8.96548 50.5423 7.44548 47.808C6.96725 46.9511 7.27837 45.952 8.13525 45.4756C8.99392 44.9974 10.0766 45.3511 10.553 46.208C11.4135 47.7565 14.1015 50.0018 17.3815 50.0925C18.3628 50.1209 19.1361 50.7822 19.1095 51.7618C19.0828 52.7254 18.2935 53.3334 17.3335 53.3334ZM48.3344 53.6676C48.0711 53.6677 47.8111 53.6094 47.5731 53.4969C47.3352 53.3843 47.1252 53.2203 46.9583 53.0167C46.7914 52.8131 46.6719 52.575 46.6082 52.3195C46.5446 52.0641 46.5385 51.7977 46.5904 51.5396C47.7708 45.6338 53.513 44.1618 56.329 44.6969C56.7922 44.784 57.2018 45.0515 57.4678 45.4406C57.7339 45.8296 57.8345 46.3084 57.7477 46.7716C57.7059 47.0016 57.6188 47.221 57.4916 47.4171C57.3644 47.6132 57.1995 47.7821 57.0066 47.9141C56.8136 48.046 56.5964 48.1384 56.3675 48.1858C56.1386 48.2332 55.9025 48.2347 55.673 48.1903C54.9175 48.048 50.8908 48.1778 50.0784 52.2365C49.9981 52.64 49.7805 53.0031 49.4625 53.2641C49.1444 53.5251 48.7458 53.6677 48.3344 53.6676ZM43.7761 45.6676C43.464 45.6678 43.1574 45.5858 42.887 45.4297C42.6167 45.2737 42.3923 45.0492 42.2364 44.7788C42.0804 44.5084 41.9985 44.2017 41.9989 43.8896C41.9992 43.5775 42.0818 43.271 42.2384 43.0009C45.5308 37.3014 49.321 37.1271 51.8277 37.0116L52.025 37.0027C52.4961 36.9801 52.9568 37.1455 53.3058 37.4625C53.6549 37.7796 53.8637 38.2223 53.8864 38.6934C53.909 39.1644 53.7436 39.6251 53.4265 39.9742C53.1095 40.3232 52.6667 40.5321 52.1957 40.5547L51.9913 40.5636C49.8508 40.6631 47.6375 40.7627 45.3175 44.7787C45.1613 45.0492 44.9366 45.2738 44.666 45.4298C44.3954 45.5859 44.0885 45.6679 43.7761 45.6676ZM41.9984 34.8889C41.6793 34.889 41.366 34.803 41.0916 34.6402C40.8172 34.4773 40.5917 34.2435 40.4389 33.9634C40.2861 33.6832 40.2116 33.3671 40.2233 33.0482C40.2349 32.7293 40.3322 32.4194 40.505 32.1511C43.0206 28.2347 48.7824 27.7049 51.6481 29.0614C52.0718 29.2645 52.3979 29.6271 52.5551 30.0699C52.7122 30.5127 52.6877 30.9997 52.4868 31.4245C52.2859 31.8493 51.9251 32.1772 51.4831 32.3367C51.0411 32.4962 50.554 32.4742 50.1281 32.2756C48.6544 31.5769 44.9264 31.8507 43.4935 34.0747C43.3323 34.3246 43.1109 34.5302 42.8497 34.6724C42.5885 34.8147 42.2958 34.8891 41.9984 34.8889ZM51.9984 24.3342C51.5825 24.3341 51.1799 24.1881 50.8606 23.9218C50.5157 23.6338 47.3904 21.1502 44.1388 22.5262C43.7092 22.6876 43.2339 22.6768 42.8121 22.496C42.3903 22.3152 42.0546 21.9784 41.8752 21.5561C41.6958 21.1337 41.6865 20.6583 41.8492 20.2292C42.012 19.8001 42.3342 19.4505 42.7486 19.2534C46.6935 17.5787 50.8108 19.2516 53.1379 21.1911C53.4185 21.4251 53.6202 21.7399 53.7156 22.0927C53.8109 22.4454 53.7952 22.8189 53.6707 23.1624C53.5461 23.5059 53.3188 23.8027 53.0195 24.0124C52.7203 24.2221 52.3637 24.3344 51.9984 24.3342ZM55.2233 17.3334C54.906 17.3337 54.5945 17.2491 54.321 17.0885C54.0474 16.9278 53.8219 16.6968 53.6677 16.4196C52.8073 14.8694 50.1193 12.6454 46.8393 12.5547C45.8561 12.528 45.0846 11.6551 45.1095 10.672C45.1397 9.70847 45.929 8.88892 46.8873 8.88892H46.937C51.3904 8.88892 55.257 11.9005 56.7753 14.6347C57.0051 15.0514 57.0614 15.5419 56.932 15.9999C56.8025 16.4578 56.4977 16.8462 56.0837 17.0809C55.8232 17.2372 55.5269 17.3241 55.2233 17.3334Z" fill="#DD2E44"/>
</g>
<defs>
<clipPath id="clip0_394_4148">
<rect width="64" height="64" fill="white"/>
</clipPath>
</defs>
</svg>
