<svg width="64" height="64" viewBox="0 0 64 64" fill="none" xmlns="http://www.w3.org/2000/svg">
<g clip-path="url(#clip0_394_4142)">
<path d="M32 64C49.6731 64 64 49.6731 64 32C64 14.3269 49.6731 0 32 0C14.3269 0 0 14.3269 0 32C0 49.6731 14.3269 64 32 64Z" fill="#F4900C"/>
<path d="M64 30.2222H48.0338C48.368 20.4338 51.488 13.6978 56.5387 11.4738C55.7445 10.5345 54.8969 9.64173 54 8.8C48.9689 11.6053 44.8533 18.1742 44.4818 30.2204H33.7778V0H30.2222V30.2222H19.5182C19.1484 18.176 15.0329 11.6071 10.0018 8.80178C9.10492 9.64293 8.2573 10.5351 7.46311 11.4738C12.5138 13.6978 15.632 20.4338 15.9662 30.2222H0V33.7778H15.9662C15.632 43.5662 12.5138 50.3022 7.46311 52.5262C8.25422 53.4702 9.10933 54.352 10.0018 55.2C15.0347 52.3947 19.1484 45.8258 19.5182 33.7778H30.2222V64H33.7778V33.7778H44.4818C44.8533 45.824 48.9671 52.3929 54 55.2C54.8924 54.3538 55.7493 53.4702 56.5387 52.5262C51.488 50.3022 48.3698 43.5662 48.0338 33.7778H64V30.2222Z" fill="#231F20"/>
</g>
<defs>
<clipPath id="clip0_394_4142">
<rect width="64" height="64" fill="white"/>
</clipPath>
</defs>
</svg>
