<svg width="44" height="48" viewBox="0 0 44 48" fill="none" xmlns="http://www.w3.org/2000/svg">
<g clip-path="url(#clip0_394_4145)">
<path d="M10.3389 10.3382C5.42423 15.2528 2.18689 21.8262 1.12423 28.4462L19.5536 46.8755C26.1736 45.8128 32.7469 42.5755 37.6616 37.6608C42.5762 32.7462 45.8136 26.1728 46.8762 19.5528L28.4469 1.12349C21.8269 2.18616 15.2536 5.42349 10.3389 10.3382ZM44.4922 3.50749C40.9429 1.53549 36.8456 0.679493 32.6296 0.751493L47.2496 15.3702C47.3202 11.1542 46.4642 7.05683 44.4922 3.50749ZM3.50823 44.4915C7.05756 46.4635 11.1562 47.3195 15.3722 47.2475L0.752226 32.6288C0.680226 36.8435 1.53623 40.9422 3.50823 44.4915Z" fill="#662113"/>
<path d="M30.4373 15.6767L27.2186 18.8953L26.276 17.9527C26.0259 17.7027 25.6869 17.5622 25.3333 17.5622C24.9797 17.5622 24.6406 17.7027 24.3906 17.9527C24.1406 18.2027 24.0002 18.5418 24.0002 18.8953C24.0002 19.2489 24.1406 19.588 24.3906 19.838L25.3333 20.782L20.7813 25.334L19.8386 24.3914C19.5886 24.1413 19.2495 24.0009 18.896 24.0009C18.5424 24.0009 18.2033 24.1413 17.9533 24.3914C17.7033 24.6414 17.5628 24.9804 17.5628 25.334C17.5628 25.6876 17.7033 26.0267 17.9533 26.2767L18.896 27.2194L15.6773 30.438L14.7346 29.4954C14.6108 29.3716 14.4639 29.2734 14.3021 29.2064C14.1404 29.1394 13.967 29.1049 13.792 29.1049C13.6169 29.1049 13.4435 29.1394 13.2818 29.2064C13.12 29.2734 12.9731 29.3716 12.8493 29.4954C12.7255 29.6191 12.6273 29.7661 12.5603 29.9278C12.4933 30.0896 12.4588 30.2629 12.4588 30.438C12.4588 30.6131 12.4933 30.7864 12.5603 30.9482C12.6273 31.1099 12.7255 31.2569 12.8493 31.3807L13.792 32.3234L12.4586 33.6567C12.2084 33.9067 12.0678 34.2459 12.0677 34.5995C12.0676 34.9532 12.2079 35.2925 12.458 35.5427C12.708 35.7929 13.0471 35.9335 13.4008 35.9336C13.7545 35.9337 14.0938 35.7934 14.344 35.5434L15.6773 34.21L16.62 35.1527C16.7437 35.2765 16.8907 35.3747 17.0525 35.4417C17.2142 35.5087 17.3875 35.5431 17.5626 35.5431C17.7377 35.5431 17.911 35.5087 18.0728 35.4417C18.2345 35.3747 18.3815 35.2765 18.5053 35.1527C18.6291 35.0289 18.7273 34.8819 18.7943 34.7202C18.8613 34.5584 18.8958 34.3851 18.8958 34.21C18.8958 34.0349 18.8613 33.8616 18.7943 33.6998C18.7273 33.5381 18.6291 33.3911 18.5053 33.2674L17.5626 32.3247L20.7813 29.106L21.724 30.0487C21.8477 30.1725 21.9947 30.2707 22.1565 30.3377C22.3182 30.4047 22.4916 30.4392 22.6666 30.4392C22.8417 30.4392 23.015 30.4047 23.1768 30.3377C23.3385 30.2707 23.4855 30.1725 23.6093 30.0487C23.7331 29.9249 23.8313 29.7779 23.8983 29.6162C23.9653 29.4544 23.9998 29.2811 23.9998 29.106C23.9998 28.931 23.9653 28.7576 23.8983 28.5959C23.8313 28.4341 23.7331 28.2871 23.6093 28.1634L22.6666 27.2194L27.2186 22.6674L28.1613 23.61C28.2851 23.7338 28.432 23.832 28.5938 23.899C28.7555 23.966 28.9289 24.0005 29.104 24.0005C29.279 24.0005 29.4524 23.966 29.6141 23.899C29.7759 23.832 29.9228 23.7338 30.0466 23.61C30.1704 23.4862 30.2686 23.3393 30.3356 23.1775C30.4026 23.0158 30.4371 22.8424 30.4371 22.6674C30.4371 22.4923 30.4026 22.3189 30.3356 22.1572C30.2686 21.9954 30.1704 21.8485 30.0466 21.7247L29.104 20.782L32.3226 17.5634L33.2653 18.506C33.3883 18.6334 33.5354 18.7349 33.6981 18.8048C33.8608 18.8747 34.0357 18.9115 34.2127 18.913C34.3898 18.9146 34.5654 18.8808 34.7292 18.8138C34.8931 18.7467 35.042 18.6477 35.1671 18.5225C35.2923 18.3974 35.3913 18.2485 35.4584 18.0846C35.5254 17.9208 35.5592 17.7452 35.5576 17.5681C35.5561 17.3911 35.5193 17.2162 35.4494 17.0535C35.3795 16.8908 35.278 16.7437 35.1506 16.6207L34.208 15.678L35.5413 14.3447C35.7913 14.0945 35.9317 13.7552 35.9316 13.4015C35.9314 13.0479 35.7908 12.7087 35.5406 12.4587C35.2904 12.2087 34.9512 12.0683 34.5975 12.0684C34.2438 12.0685 33.9046 12.2092 33.6546 12.4594L32.3213 13.7927L31.3786 12.85C31.2548 12.7262 31.1079 12.628 30.9461 12.561C30.7844 12.494 30.611 12.4596 30.436 12.4596C30.2609 12.4596 30.0875 12.494 29.9258 12.561C29.764 12.628 29.6171 12.7262 29.4933 12.85C29.3695 12.9738 29.2713 13.1208 29.2043 13.2825C29.1373 13.4443 29.1028 13.6176 29.1028 13.7927C29.1028 13.9678 29.1373 14.1411 29.2043 14.3029C29.2713 14.4646 29.3695 14.6116 29.4933 14.7354L30.4373 15.6767ZM0.751953 32.63L15.372 47.25C16.7728 47.226 18.1702 47.1017 19.5533 46.878L1.12395 28.4473C0.90019 29.8309 0.775872 31.2287 0.751953 32.63ZM32.6293 0.752686C31.2426 0.776686 29.8453 0.900686 28.448 1.12469L46.8773 19.554C47.101 18.1709 47.2253 16.7736 47.2493 15.3727L32.6293 0.752686Z" fill="#E1E8ED"/>
</g>
<defs>
<clipPath id="clip0_394_4145">
<rect width="48" height="48" fill="white"/>
</clipPath>
</defs>
</svg>
