<svg width="48" height="48" viewBox="0 0 48 48" fill="none" xmlns="http://www.w3.org/2000/svg">
<g clip-path="url(#clip0_394_4152)">
<path d="M5.3332 48H42.6665C45.3332 48 47.6412 45.3333 47.6412 42.6667C47.6412 36.86 41.4625 28 23.9999 28C6.01054 28 0.257202 36.612 0.257202 42.6667C0.257202 45.3333 2.66654 48 5.3332 48Z" fill="#77B255"/>
<path d="M15.056 39.333C15.056 39.333 16.3334 40.2223 17.6667 40.2223C20.6107 33.7223 35 30.2223 36.3334 30.2223C36.5334 30.2223 36.7734 30.1983 37.016 30.1597C36.0004 29.7721 34.9631 29.444 33.9094 29.177C27.7414 29.261 16.5347 34.3997 15.056 39.333Z" fill="#5C913B"/>
<path d="M16.6667 43.9999C21.4531 43.9999 25.3333 42.5075 25.3333 40.6666C25.3333 38.8256 21.4531 37.3333 16.6667 37.3333C11.8802 37.3333 8 38.8256 8 40.6666C8 42.5075 11.8802 43.9999 16.6667 43.9999Z" fill="#292F33"/>
<path d="M13.3334 5.33325V39.9999C13.3334 40.7373 13.9307 41.1253 14.6667 41.1253C15.4027 41.1253 16 40.7373 16 39.9999V5.33325H13.3334Z" fill="#FFAC33"/>
<path d="M13.3334 4.00029C13.3334 1.06696 15.5934 -0.526372 18.356 0.460295L30.9774 4.9683C33.7387 5.95496 33.7387 7.56963 30.9774 8.55496L18.356 13.063C15.5934 14.051 13.3334 12.4576 13.3334 9.52429V4.00029Z" fill="#DD2E44"/>
</g>
<defs>
<clipPath id="clip0_394_4152">
<rect width="48" height="48" fill="white"/>
</clipPath>
</defs>
</svg>
