<svg width="201" height="193" viewBox="0 0 201 193" fill="none" xmlns="http://www.w3.org/2000/svg">
<circle cx="90" cy="90" r="90" transform="matrix(-1 0 0 1 180 13)" fill="url(#paint0_radial_394_4129)"/>
<g filter="url(#filter0_d_394_4129)">
<path d="M142.5 5C142.5 5 122.491 26.3443 106.5 35.5C73.3324 54.4907 28.6731 47.5 25.5 53C22.3269 58.5 30.1107 90.927 33.5 99.5C42 121 51.5 130 51.5 130" stroke="black" stroke-width="10" stroke-linecap="round"/>
</g>
<path d="M91.0115 126.71C91.0115 126.71 113.061 141.698 125.412 116" stroke="black" stroke-width="10" stroke-linecap="round"/>
<g filter="url(#filter1_f_394_4129)">
<ellipse cx="140.75" cy="77.8557" rx="20" ry="22.5" fill="url(#paint1_radial_394_4129)"/>
</g>
<g filter="url(#filter2_f_394_4129)">
<ellipse cx="107.313" cy="77.9092" rx="20" ry="22.5" fill="url(#paint2_radial_394_4129)"/>
</g>
<ellipse cx="150.737" cy="75.9194" rx="10" ry="11.25" fill="black"/>
<path d="M108 69L117.115 74.2585C118.966 75.3263 119.138 77.932 117.445 79.2349L108 86.5" stroke="black" stroke-width="10" stroke-linecap="round"/>
<path d="M157 45.9696C146.116 34.9527 128.528 39.0936 125.122 48.7585" stroke="black" stroke-width="10" stroke-linecap="round"/>
<ellipse cx="171" cy="162" rx="30" ry="25" fill="url(#paint3_radial_394_4129)"/>
<defs>
<filter id="filter0_d_394_4129" x="19.7552" y="0" width="137.745" height="148" filterUnits="userSpaceOnUse" color-interpolation-filters="sRGB">
<feFlood flood-opacity="0" result="BackgroundImageFix"/>
<feColorMatrix in="SourceAlpha" type="matrix" values="0 0 0 0 0 0 0 0 0 0 0 0 0 0 0 0 0 0 127 0" result="hardAlpha"/>
<feOffset dx="5" dy="8"/>
<feGaussianBlur stdDeviation="2.5"/>
<feComposite in2="hardAlpha" operator="out"/>
<feColorMatrix type="matrix" values="0 0 0 0 0 0 0 0 0 0 0 0 0 0 0 0 0 0 0.2 0"/>
<feBlend mode="normal" in2="BackgroundImageFix" result="effect1_dropShadow_394_4129"/>
<feBlend mode="normal" in="SourceGraphic" in2="effect1_dropShadow_394_4129" result="shape"/>
</filter>
<filter id="filter1_f_394_4129" x="119.75" y="54.3557" width="42" height="47" filterUnits="userSpaceOnUse" color-interpolation-filters="sRGB">
<feFlood flood-opacity="0" result="BackgroundImageFix"/>
<feBlend mode="normal" in="SourceGraphic" in2="BackgroundImageFix" result="shape"/>
<feGaussianBlur stdDeviation="0.5" result="effect1_foregroundBlur_394_4129"/>
</filter>
<filter id="filter2_f_394_4129" x="86.3127" y="54.4092" width="42" height="47" filterUnits="userSpaceOnUse" color-interpolation-filters="sRGB">
<feFlood flood-opacity="0" result="BackgroundImageFix"/>
<feBlend mode="normal" in="SourceGraphic" in2="BackgroundImageFix" result="shape"/>
<feGaussianBlur stdDeviation="0.5" result="effect1_foregroundBlur_394_4129"/>
</filter>
<radialGradient id="paint0_radial_394_4129" cx="0" cy="0" r="1" gradientUnits="userSpaceOnUse" gradientTransform="translate(114.5 117.5) rotate(43.6574) scale(90.5345)">
<stop stop-color="#FFBF3B"/>
<stop offset="1" stop-color="#FEE5AC"/>
</radialGradient>
<radialGradient id="paint1_radial_394_4129" cx="0" cy="0" r="1" gradientUnits="userSpaceOnUse" gradientTransform="translate(140.75 55.3557) rotate(90) scale(45 40)">
<stop stop-color="white"/>
<stop offset="1" stop-color="white" stop-opacity="0.5"/>
</radialGradient>
<radialGradient id="paint2_radial_394_4129" cx="0" cy="0" r="1" gradientUnits="userSpaceOnUse" gradientTransform="translate(107.313 55.4092) rotate(90) scale(45 40)">
<stop stop-color="white"/>
<stop offset="1" stop-color="white" stop-opacity="0.5"/>
</radialGradient>
<radialGradient id="paint3_radial_394_4129" cx="0" cy="0" r="1" gradientUnits="userSpaceOnUse" gradientTransform="translate(171 137) rotate(90) scale(33 39.6)">
<stop stop-color="#FFBF3B"/>
<stop offset="1" stop-color="#FEE5AC"/>
</radialGradient>
</defs>
</svg>
