<svg width="72" height="72" viewBox="0 0 72 72" fill="none" xmlns="http://www.w3.org/2000/svg">
<g clip-path="url(#clip0_394_4158)">
<path d="M46.2118 11.9417C35.2298 0.959679 16.7678 -1.04232 6.61383 9.11368C-3.54017 19.2677 -1.54017 37.7297 9.44183 48.7117C16.5498 55.8197 25.0118 57.3577 32.8558 54.8277L32.8258 54.8537L33.0858 54.7497C33.6138 54.5737 34.1398 54.3917 34.6618 54.1817C36.5885 53.5251 38.5535 52.9867 40.5458 52.5697C44.2418 51.8097 47.6278 55.7817 50.4558 58.6117C53.2838 61.4417 58.9398 69.9257 60.3538 71.3397C61.7678 72.7537 63.1818 71.3397 64.5978 69.9257L66.0118 68.5117L67.4258 67.0977C68.8398 65.6817 70.2538 64.2677 68.8398 62.8537C67.4258 61.4397 58.9398 55.7837 56.1118 52.9557C53.2838 50.1277 49.3118 46.7417 50.0698 43.0457C50.4164 41.3696 50.8523 39.7132 51.3758 38.0837C55.3238 29.6397 54.4498 20.1797 46.2118 11.9417Z" fill="#DD2E44"/>
<path d="M31.1279 55.31C31.7066 55.1714 32.2826 55.0107 32.8559 54.828L32.8259 54.854L33.0859 54.75C33.6139 54.574 34.1399 54.392 34.6619 54.182C36.5886 53.5254 38.5536 52.9871 40.5459 52.57C44.2419 51.81 47.6279 55.782 50.4559 58.612C53.2839 61.442 58.9399 69.926 60.3539 71.34C61.7679 72.754 63.1819 71.34 64.5979 69.926L66.0119 68.512L67.4259 67.098C68.8399 65.682 70.2539 64.268 68.8399 62.854C67.4259 61.44 58.9399 55.784 56.1119 52.956C53.2839 50.128 49.3119 46.742 50.0699 43.046C50.4165 41.3699 50.8524 39.7135 51.3759 38.084C52.0906 36.5547 52.6399 34.9987 53.0239 33.416L31.1279 55.31Z" fill="#D99E82"/>
<path d="M40.5537 45.8846L43.3817 43.0566L67.4257 67.0986L64.5977 69.9266L40.5537 45.8846Z" fill="#FFCC4D"/>
<path d="M63 20C66.866 20 70 16.866 70 13C70 9.13401 66.866 6 63 6C59.134 6 56 9.13401 56 13C56 16.866 59.134 20 63 20Z" fill="#CCD6DD"/>
</g>
<defs>
<clipPath id="clip0_394_4158">
<rect width="72" height="72" fill="white"/>
</clipPath>
</defs>
</svg>
