<svg width="79" height="79" viewBox="0 0 79 79" fill="none" xmlns="http://www.w3.org/2000/svg">
<g clip-path="url(#clip0_394_4167)">
<path d="M38.7882 71.0336L61.6288 53.381L35.6218 42.4361C30.0771 39.8285 23.3199 40.3268 18.1463 44.3247C10.7876 50.0106 9.44693 60.5993 15.1482 67.9741C20.8464 75.3516 31.4317 76.7208 38.7882 71.0336ZM47.6477 35.6708L70.1315 45.1027L67.3221 21.4782C67.1267 18.8675 66.2136 16.3616 64.6837 14.2373C63.1537 12.1129 61.0665 10.4527 58.6523 9.4399C55.1843 8.03611 51.3028 8.05524 47.8488 9.49314C44.3947 10.931 41.6463 13.6719 40.1989 17.122C38.7515 20.5721 38.7217 24.4535 40.1159 27.9254C41.5102 31.3972 44.2162 34.18 47.6477 35.6708ZM18.0798 30.6824L34.2433 34.9834L30.0562 19.1304C29.2871 15.6555 26.6726 12.7119 23.0145 11.7393C21.7758 11.4094 20.4841 11.3281 19.2139 11.5001C17.9437 11.6721 16.7201 12.094 15.6138 12.7414C14.5075 13.3888 13.5404 14.2489 12.7683 15.272C11.9962 16.2952 11.4343 17.4611 11.1152 18.7026C9.7577 23.9326 12.8705 29.2991 18.0798 30.6824Z" fill="#5DADEC"/>
</g>
<defs>
<clipPath id="clip0_394_4167">
<rect width="64" height="64" fill="white" transform="translate(78.3837 61.8193) rotate(165)"/>
</clipPath>
</defs>
</svg>
