<svg width="32" height="32" viewBox="0 0 32 32" fill="none" xmlns="http://www.w3.org/2000/svg">
<circle cx="16" cy="16" r="16" fill="#FF8A3B"/>
<path d="M15.4902 23.1953C12.4727 23.1953 10.3145 21.5547 10.2559 19.1719H12.8145C12.8828 20.3047 14.0156 21.0566 15.4902 21.0469C17.043 21.0566 18.166 20.1973 18.166 18.9375C18.166 17.668 17.0723 16.7598 15.2363 16.75H13.9668V14.7969H15.2363C16.7402 14.7969 17.7852 13.957 17.7754 12.7266C17.7852 11.5352 16.8867 10.7344 15.5098 10.7344C14.1816 10.7344 13.0391 11.4766 12.9902 12.668H10.5488C10.6074 10.2949 12.7656 8.66406 15.5293 8.66406C18.4004 8.66406 20.2559 10.4219 20.2363 12.5898C20.2559 14.1719 19.2012 15.3145 17.6582 15.6367V15.7539C19.6504 16.0176 20.7832 17.2969 20.7637 19.0742C20.7832 21.4668 18.5469 23.1953 15.4902 23.1953Z" fill="#7C4119"/>
</svg>
