<svg width="18" height="20" viewBox="0 0 18 20" fill="none" xmlns="http://www.w3.org/2000/svg">
<path d="M7.17223 0.585573L0.586232 7.17157C0.306366 7.45126 0.115748 7.80768 0.0384943 8.19573C-0.0387597 8.58378 0.000821993 8.98602 0.152232 9.35157L0.220232 9.49657C0.387942 9.82435 0.642878 10.0995 0.956951 10.2916C1.27102 10.4838 1.63204 10.5855 2.00023 10.5856H4.58623V17.5856C4.58623 18.116 4.79695 18.6247 5.17202 18.9998C5.54709 19.3749 6.0558 19.5856 6.58623 19.5856H10.5862L10.7362 19.5806C11.2394 19.5427 11.7096 19.3161 12.0527 18.9461C12.3958 18.5761 12.5864 18.0901 12.5862 17.5856L12.5852 10.5856H15.1722C15.5677 10.5855 15.9543 10.4681 16.2831 10.2484C16.612 10.0286 16.8682 9.71628 17.0196 9.35088C17.1709 8.98548 17.2105 8.58342 17.1334 8.19551C17.0563 7.8076 16.8659 7.45128 16.5862 7.17157L10.0002 0.585573C9.62518 0.210631 9.11656 0 8.58623 0C8.0559 0 7.54729 0.210631 7.17223 0.585573Z" fill="#009900"/>
</svg>
