<svg width="141" height="191" viewBox="0 0 141 191" fill="none" xmlns="http://www.w3.org/2000/svg">
<circle cx="95" cy="95" r="95" transform="matrix(-1 0 0 1 190 1.00117)" fill="url(#paint0_radial_46_948)"/>
<g filter="url(#filter0_d_46_948)">
<path d="M193.5 67.0012C143.226 34.1111 112.148 20.1629 50.5 5.00117" stroke="black" stroke-width="10" stroke-linecap="round"/>
</g>
<g filter="url(#filter1_f_46_948)">
<ellipse cx="20" cy="22.5" rx="20" ry="22.5" transform="matrix(-0.965926 -0.258819 -0.258819 0.965926 73.7161 46.354)" fill="url(#paint1_radial_46_948)"/>
</g>
<path d="M96.6269 115.711C96.6269 115.711 74.5771 130.699 62.2267 105.001" stroke="black" stroke-width="10" stroke-linecap="round"/>
<g filter="url(#filter2_f_46_948)">
<ellipse cx="20" cy="22.5" rx="20" ry="22.5" transform="matrix(-0.965926 -0.258819 -0.258819 0.965926 106 55.0599)" fill="url(#paint2_radial_46_948)"/>
</g>
<ellipse cx="10" cy="11.25" rx="10" ry="11.25" transform="matrix(-0.965926 -0.258819 -0.258819 0.965926 84 60.1776)" fill="black"/>
<ellipse cx="10" cy="11.25" rx="10" ry="11.25" transform="matrix(-0.965926 -0.258819 -0.258819 0.965926 52 50.1776)" fill="black"/>
<path d="M115 55.5012C115 55.5012 104.824 57.7592 95 55.5012C86.513 53.5504 77.5 44.0012 77.5 44.0012" stroke="black" stroke-width="8" stroke-linecap="round"/>
<defs>
<filter id="filter0_d_46_948" x="45.4988" y="0" width="163.002" height="85.0017" filterUnits="userSpaceOnUse" color-interpolation-filters="sRGB">
<feFlood flood-opacity="0" result="BackgroundImageFix"/>
<feColorMatrix in="SourceAlpha" type="matrix" values="0 0 0 0 0 0 0 0 0 0 0 0 0 0 0 0 0 0 127 0" result="hardAlpha"/>
<feOffset dx="5" dy="8"/>
<feGaussianBlur stdDeviation="2.5"/>
<feComposite in2="hardAlpha" operator="out"/>
<feColorMatrix type="matrix" values="0 0 0 0 0 0 0 0 0 0 0 0 0 0 0 0 0 0 0.2 0"/>
<feBlend mode="normal" in2="BackgroundImageFix" result="effect1_dropShadow_46_948"/>
<feBlend mode="normal" in="SourceGraphic" in2="effect1_dropShadow_46_948" result="shape"/>
</filter>
<filter id="filter1_f_46_948" x="27.3916" y="39.5645" width="42.365" height="46.6927" filterUnits="userSpaceOnUse" color-interpolation-filters="sRGB">
<feFlood flood-opacity="0" result="BackgroundImageFix"/>
<feBlend mode="normal" in="SourceGraphic" in2="BackgroundImageFix" result="shape"/>
<feGaussianBlur stdDeviation="0.5" result="effect1_foregroundBlur_46_948"/>
</filter>
<filter id="filter2_f_46_948" x="59.6755" y="48.2705" width="42.365" height="46.6927" filterUnits="userSpaceOnUse" color-interpolation-filters="sRGB">
<feFlood flood-opacity="0" result="BackgroundImageFix"/>
<feBlend mode="normal" in="SourceGraphic" in2="BackgroundImageFix" result="shape"/>
<feGaussianBlur stdDeviation="0.5" result="effect1_foregroundBlur_46_948"/>
</filter>
<radialGradient id="paint0_radial_46_948" cx="0" cy="0" r="1" gradientUnits="userSpaceOnUse" gradientTransform="translate(95 117.5) rotate(47.687) scale(98.0421)">
<stop stop-color="#70B3F7"/>
<stop offset="1" stop-color="#B5DCFB"/>
</radialGradient>
<radialGradient id="paint1_radial_46_948" cx="0" cy="0" r="1" gradientUnits="userSpaceOnUse" gradientTransform="translate(20) rotate(90) scale(45 40)">
<stop stop-color="white"/>
<stop offset="1" stop-color="white" stop-opacity="0.5"/>
</radialGradient>
<radialGradient id="paint2_radial_46_948" cx="0" cy="0" r="1" gradientUnits="userSpaceOnUse" gradientTransform="translate(20) rotate(90) scale(45 40)">
<stop stop-color="white"/>
<stop offset="1" stop-color="white" stop-opacity="0.5"/>
</radialGradient>
</defs>
</svg>
