<svg width="96" height="130" viewBox="0 0 96 130" fill="none" xmlns="http://www.w3.org/2000/svg">
<circle cx="62" cy="62" r="62" transform="matrix(-1 0 0 1 124.5 5.96564)" fill="url(#paint0_radial_46_933)"/>
<g filter="url(#filter0_d_46_933)">
<path d="M126.5 78.9656C101 62.4656 84 45.4656 65 6.96564L62.5 5.96564C46.5 24.4656 30 31.9656 5 31.9656" stroke="black" stroke-width="10" stroke-linecap="round"/>
</g>
<g filter="url(#filter1_f_46_933)">
<circle cx="17.5" cy="17.5" r="17.5" transform="matrix(-0.965926 -0.258819 -0.258819 0.965926 70.5 42.0244)" fill="url(#paint1_radial_46_933)"/>
</g>
<path d="M56.4692 55.7994C56.4692 55.7994 53.4006 36.3422 41.0139 51.6582" stroke="black" stroke-width="8" stroke-linecap="round"/>
<path d="M67.2412 87.955C67.2412 87.955 49.1289 97.5957 37.5563 78.9657" stroke="black" stroke-width="8" stroke-linecap="round"/>
<defs>
<filter id="filter0_d_46_933" x="0" y="0" width="141.5" height="96.9662" filterUnits="userSpaceOnUse" color-interpolation-filters="sRGB">
<feFlood flood-opacity="0" result="BackgroundImageFix"/>
<feColorMatrix in="SourceAlpha" type="matrix" values="0 0 0 0 0 0 0 0 0 0 0 0 0 0 0 0 0 0 127 0" result="hardAlpha"/>
<feOffset dx="5" dy="8"/>
<feGaussianBlur stdDeviation="2.5"/>
<feComposite in2="hardAlpha" operator="out"/>
<feColorMatrix type="matrix" values="0 0 0 0 0 0 0 0 0 0 0 0 0 0 0 0 0 0 0.2 0"/>
<feBlend mode="normal" in2="BackgroundImageFix" result="effect1_dropShadow_46_933"/>
<feBlend mode="normal" in="SourceGraphic" in2="effect1_dropShadow_46_933" result="shape"/>
</filter>
<filter id="filter1_f_46_933" x="30.5625" y="35.8943" width="37.0088" height="37.0087" filterUnits="userSpaceOnUse" color-interpolation-filters="sRGB">
<feFlood flood-opacity="0" result="BackgroundImageFix"/>
<feBlend mode="normal" in="SourceGraphic" in2="BackgroundImageFix" result="shape"/>
<feGaussianBlur stdDeviation="0.5" result="effect1_foregroundBlur_46_933"/>
</filter>
<radialGradient id="paint0_radial_46_933" cx="0" cy="0" r="1" gradientUnits="userSpaceOnUse" gradientTransform="translate(62 90) rotate(90) scale(85)">
<stop stop-color="#A5F269"/>
<stop offset="1" stop-color="#DEF5CE"/>
</radialGradient>
<radialGradient id="paint1_radial_46_933" cx="0" cy="0" r="1" gradientUnits="userSpaceOnUse" gradientTransform="translate(17.5) rotate(90) scale(35)">
<stop stop-color="white"/>
<stop offset="1" stop-color="white" stop-opacity="0.5"/>
</radialGradient>
</defs>
</svg>
