<svg width="390" height="58" viewBox="0 0 390 58" fill="none" xmlns="http://www.w3.org/2000/svg">
<path d="M9.20601 18.216V44.22H-5.842V15.84C-5.842 5.94 2.078 0 13.958 0C18.974 0 23.792 1.914 27.554 4.95C31.316 1.914 36.134 0 41.15 0C53.03 0 60.95 5.94 60.95 15.84V44.22H45.902V18.216C45.902 14.586 43.724 12.144 40.49 12.144C37.256 12.144 35.078 14.586 35.078 18.216V44.22H20.03V18.216C20.03 14.586 17.852 12.144 14.618 12.144C11.384 12.144 9.20601 14.586 9.20601 18.216ZM89.3099 0C104.82 0 112.674 10.164 112.674 22.836C112.674 35.508 104.82 45.672 89.3099 45.672C73.7999 45.672 65.9459 35.508 65.9459 22.836C65.9459 10.164 73.7999 0 89.3099 0ZM89.3099 33.528C95.0519 33.528 97.4939 28.446 97.4939 22.836C97.4939 17.226 95.0519 12.144 89.3099 12.144C83.5679 12.144 81.1259 17.226 81.1259 22.836C81.1259 28.446 83.5679 33.528 89.3099 33.528ZM164.298 23.232C161.988 38.94 153.144 45.54 141.33 45.54C129.516 45.54 120.672 38.94 118.362 23.232L115.062 1.05601H131.562L134.598 23.232C135.456 29.634 137.964 33.264 141.33 33.264C144.696 33.264 147.204 29.568 148.062 23.232L151.098 1.05601H167.598L164.298 23.232ZM216.358 26.796H185.602C186.658 31.086 189.562 33.726 193.654 33.726C197.152 33.726 199.792 32.208 200.584 29.568H216.49C213.982 38.742 206.524 45.606 193.72 45.606C178.21 45.606 169.96 35.442 169.96 22.836C169.96 10.164 177.814 0 193.324 0C208.834 0 216.688 10.164 216.688 22.836C216.688 24.222 216.556 25.476 216.358 26.796ZM185.932 17.292H200.716C199.594 13.794 197.218 11.484 193.324 11.484C189.43 11.484 187.054 13.794 185.932 17.292ZM236.764 18.216V44.22H221.716V15.84C221.716 5.94 229.636 0 241.516 0C246.532 0 251.35 1.914 255.112 4.95C258.874 1.914 263.692 0 268.708 0C280.588 0 288.508 5.94 288.508 15.84V44.22H273.46V18.216C273.46 14.586 271.282 12.144 268.048 12.144C264.814 12.144 262.636 14.586 262.636 18.216V44.22H247.588V18.216C247.588 14.586 245.41 12.144 242.176 12.144C238.942 12.144 236.764 14.586 236.764 18.216ZM327.362 1.32H341.882V44.22H327.362V39.996C324.26 43.428 319.838 45.54 313.832 45.54C302.018 45.54 293.504 35.31 293.504 22.77C293.504 10.164 302.018 0 313.832 0C319.838 0 324.26 2.112 327.362 5.544V1.32ZM317.726 33.462C324.128 33.462 326.702 28.248 326.702 22.836C326.702 17.424 324.128 12.21 317.726 12.21C311.456 12.21 308.684 17.424 308.684 22.836C308.684 28.248 311.456 33.462 317.726 33.462ZM363.727 57.486H348.547V1.05601H363.067V5.544C366.169 2.112 370.591 0 376.597 0C388.411 0 396.925 10.23 396.925 22.77C396.925 35.376 388.411 45.54 376.597 45.54C371.053 45.54 366.763 43.758 363.727 40.722V57.486ZM372.703 12.078C366.301 12.078 363.727 17.292 363.727 22.704C363.727 28.116 366.301 33.33 372.703 33.33C378.973 33.33 381.745 28.116 381.745 22.704C381.745 17.292 378.973 12.078 372.703 12.078Z" fill="black"/>
</svg>
