<svg width="135" height="20" viewBox="0 0 135 20" fill="none" xmlns="http://www.w3.org/2000/svg">
<path d="M5.01601 6.072V14.74H1.36942e-05V5.28C1.36942e-05 1.98 2.64001 9.53674e-07 6.60001 9.53674e-07C8.27201 9.53674e-07 9.87801 0.638001 11.132 1.65C12.386 0.638001 13.992 9.53674e-07 15.664 9.53674e-07C19.624 9.53674e-07 22.264 1.98 22.264 5.28V14.74H17.248V6.072C17.248 4.862 16.522 4.048 15.444 4.048C14.366 4.048 13.64 4.862 13.64 6.072V14.74H8.62401V6.072C8.62401 4.862 7.89801 4.048 6.82001 4.048C5.74201 4.048 5.01601 4.862 5.01601 6.072ZM31.7173 9.53674e-07C36.8873 9.53674e-07 39.5053 3.388 39.5053 7.612C39.5053 11.836 36.8873 15.224 31.7173 15.224C26.5473 15.224 23.9293 11.836 23.9293 7.612C23.9293 3.388 26.5473 9.53674e-07 31.7173 9.53674e-07ZM31.7173 11.176C33.6313 11.176 34.4453 9.482 34.4453 7.612C34.4453 5.742 33.6313 4.048 31.7173 4.048C29.8033 4.048 28.9893 5.742 28.9893 7.612C28.9893 9.482 29.8033 11.176 31.7173 11.176ZM56.7133 7.744C55.9433 12.98 52.9953 15.18 49.0573 15.18C45.1193 15.18 42.1713 12.98 41.4013 7.744L40.3013 0.352002H45.8013L46.8133 7.744C47.0993 9.878 47.9353 11.088 49.0573 11.088C50.1793 11.088 51.0153 9.856 51.3013 7.744L52.3133 0.352002H57.8133L56.7133 7.744ZM74.0668 8.932H63.8148C64.1668 10.362 65.1348 11.242 66.4988 11.242C67.6648 11.242 68.5448 10.736 68.8088 9.856H74.1108C73.2748 12.914 70.7888 15.202 66.5208 15.202C61.3508 15.202 58.6008 11.814 58.6008 7.612C58.6008 3.388 61.2188 9.53674e-07 66.3888 9.53674e-07C71.5588 9.53674e-07 74.1768 3.388 74.1768 7.612C74.1768 8.074 74.1328 8.492 74.0668 8.932ZM63.9248 5.764H68.8528C68.4788 4.598 67.6868 3.828 66.3888 3.828C65.0908 3.828 64.2988 4.598 63.9248 5.764ZM80.8688 6.072V14.74H75.8528V5.28C75.8528 1.98 78.4928 9.53674e-07 82.4528 9.53674e-07C84.1248 9.53674e-07 85.7308 0.638001 86.9848 1.65C88.2388 0.638001 89.8448 9.53674e-07 91.5168 9.53674e-07C95.4768 9.53674e-07 98.1168 1.98 98.1168 5.28V14.74H93.1008V6.072C93.1008 4.862 92.3748 4.048 91.2968 4.048C90.2188 4.048 89.4928 4.862 89.4928 6.072V14.74H84.4768V6.072C84.4768 4.862 83.7508 4.048 82.6728 4.048C81.5948 4.048 80.8688 4.862 80.8688 6.072ZM111.068 0.440001H115.908V14.74H111.068V13.332C110.034 14.476 108.56 15.18 106.558 15.18C102.62 15.18 99.782 11.77 99.782 7.59C99.782 3.388 102.62 9.53674e-07 106.558 9.53674e-07C108.56 9.53674e-07 110.034 0.704001 111.068 1.848V0.440001ZM107.856 11.154C109.99 11.154 110.848 9.416 110.848 7.612C110.848 5.808 109.99 4.07 107.856 4.07C105.766 4.07 104.842 5.808 104.842 7.612C104.842 9.416 105.766 11.154 107.856 11.154ZM123.19 19.162H118.13V0.352002H122.97V1.848C124.004 0.704001 125.478 9.53674e-07 127.48 9.53674e-07C131.418 9.53674e-07 134.256 3.41 134.256 7.59C134.256 11.792 131.418 15.18 127.48 15.18C125.632 15.18 124.202 14.586 123.19 13.574V19.162ZM126.182 4.026C124.048 4.026 123.19 5.764 123.19 7.568C123.19 9.372 124.048 11.11 126.182 11.11C128.272 11.11 129.196 9.372 129.196 7.568C129.196 5.764 128.272 4.026 126.182 4.026Z" fill="black"/>
</svg>
