<svg width="79" height="60" viewBox="0 0 79 60" fill="none" xmlns="http://www.w3.org/2000/svg">
<circle cx="30" cy="30" r="30" transform="matrix(-1 0 0 1 61.9657 0)" fill="url(#paint0_radial_46_957)"/>
<g filter="url(#filter0_d_46_957)">
<path d="M66.4657 27.5C54.0143 22.6013 48.9657 21 40.4657 11" stroke="black" stroke-width="5" stroke-linecap="round"/>
</g>
<g filter="url(#filter1_f_46_957)">
<ellipse cx="9.82655" cy="11.0549" rx="9.82655" ry="11.0549" transform="matrix(-0.965926 -0.258819 -0.258819 0.965926 27.1037 14.0865)" fill="url(#paint1_radial_46_957)"/>
</g>
<g filter="url(#filter2_f_46_957)">
<ellipse cx="9.82655" cy="11.0549" rx="9.82655" ry="11.0549" transform="matrix(-0.965926 -0.258819 -0.258819 0.965926 42.9657 18.364)" fill="url(#paint2_radial_46_957)"/>
</g>
<ellipse cx="3.5" cy="3.9375" rx="3.5" ry="3.9375" transform="matrix(-0.965926 -0.258819 -0.258819 0.965926 28.9657 20.8117)" fill="black"/>
<ellipse cx="3.5" cy="3.9375" rx="3.5" ry="3.9375" transform="matrix(-0.965926 -0.258819 -0.258819 0.965926 18.9657 17.8117)" fill="black"/>
<ellipse cx="3" cy="3.42857" rx="3" ry="3.42857" transform="matrix(-0.965926 -0.258819 -0.258819 0.965926 29.9657 42.5529)" fill="black"/>
<rect x="-1.73386" y="1.08445" width="15.2606" height="25.1311" rx="7.63031" transform="matrix(-0.965926 -0.258819 -0.189982 0.981788 36.7631 11.5144)" stroke="black" stroke-width="3"/>
<rect x="-1.73386" y="1.08445" width="15.2606" height="25.1311" rx="7.63031" transform="matrix(-0.965926 -0.258819 -0.189982 0.981788 19.7802 6.29719)" stroke="black" stroke-width="3"/>
<defs>
<filter id="filter0_d_46_957" x="37.9657" y="8.49994" width="41.0007" height="34.5007" filterUnits="userSpaceOnUse" color-interpolation-filters="sRGB">
<feFlood flood-opacity="0" result="BackgroundImageFix"/>
<feColorMatrix in="SourceAlpha" type="matrix" values="0 0 0 0 0 0 0 0 0 0 0 0 0 0 0 0 0 0 127 0" result="hardAlpha"/>
<feOffset dx="5" dy="8"/>
<feGaussianBlur stdDeviation="2.5"/>
<feComposite in2="hardAlpha" operator="out"/>
<feColorMatrix type="matrix" values="0 0 0 0 0 0 0 0 0 0 0 0 0 0 0 0 0 0 0.2 0"/>
<feBlend mode="normal" in2="BackgroundImageFix" result="effect1_dropShadow_46_957"/>
<feBlend mode="normal" in="SourceGraphic" in2="effect1_dropShadow_46_957" result="shape"/>
</filter>
<filter id="filter1_f_46_957" x="3.83463" y="10.2421" width="21.8323" height="23.9587" filterUnits="userSpaceOnUse" color-interpolation-filters="sRGB">
<feFlood flood-opacity="0" result="BackgroundImageFix"/>
<feBlend mode="normal" in="SourceGraphic" in2="BackgroundImageFix" result="shape"/>
<feGaussianBlur stdDeviation="0.5" result="effect1_foregroundBlur_46_957"/>
</filter>
<filter id="filter2_f_46_957" x="19.6967" y="14.5195" width="21.8323" height="23.9587" filterUnits="userSpaceOnUse" color-interpolation-filters="sRGB">
<feFlood flood-opacity="0" result="BackgroundImageFix"/>
<feBlend mode="normal" in="SourceGraphic" in2="BackgroundImageFix" result="shape"/>
<feGaussianBlur stdDeviation="0.5" result="effect1_foregroundBlur_46_957"/>
</filter>
<radialGradient id="paint0_radial_46_957" cx="0" cy="0" r="1" gradientUnits="userSpaceOnUse" gradientTransform="translate(30 38) rotate(113.459) scale(28.8877)">
<stop stop-color="#FE9E59"/>
<stop offset="1" stop-color="#F4CAA8"/>
</radialGradient>
<radialGradient id="paint1_radial_46_957" cx="0" cy="0" r="1" gradientUnits="userSpaceOnUse" gradientTransform="translate(9.82655) rotate(90) scale(22.1097 19.6531)">
<stop stop-color="white"/>
<stop offset="1" stop-color="white" stop-opacity="0.5"/>
</radialGradient>
<radialGradient id="paint2_radial_46_957" cx="0" cy="0" r="1" gradientUnits="userSpaceOnUse" gradientTransform="translate(9.82655) rotate(90) scale(22.1097 19.6531)">
<stop stop-color="white"/>
<stop offset="1" stop-color="white" stop-opacity="0.5"/>
</radialGradient>
</defs>
</svg>
