<svg width="129" height="156" viewBox="0 0 129 156" fill="none" xmlns="http://www.w3.org/2000/svg">
<circle cx="72.5" cy="82.5398" r="72.5" fill="url(#paint0_radial_46_929)"/>
<g filter="url(#filter0_d_46_929)">
<path d="M18 18.5409C18 18.5409 66.8106 36.5321 96.5 28.0409C100 27.0398 106 27.5398 111.5 21.0398C116.342 15.3176 113.147 5.74093 102.5 5.03984C93.8477 4.4701 91.406 9.87931 91 18.5408C89.5 50.5399 144.5 92.5408 144.5 92.5408" stroke="black" stroke-width="10" stroke-linecap="round" shape-rendering="crispEdges"/>
</g>
<g filter="url(#filter1_f_46_929)">
<ellipse cx="18.1669" cy="20.4377" rx="18.1669" ry="20.4377" transform="matrix(-0.965926 -0.258819 -0.258819 0.965926 59.6751 45.4437)" fill="url(#paint1_radial_46_929)"/>
</g>
<g filter="url(#filter2_f_46_929)">
<ellipse cx="18.1669" cy="20.4377" rx="18.1669" ry="20.4377" transform="matrix(-0.965926 -0.258819 -0.258819 0.965926 89 53.3517)" fill="url(#paint2_radial_46_929)"/>
</g>
<ellipse cx="9.08344" cy="10.2189" rx="9.08344" ry="10.2189" transform="matrix(-0.965926 -0.258819 -0.258819 0.965926 69.0164 58.0003)" fill="black"/>
<ellipse cx="9.08344" cy="10.2189" rx="9.08344" ry="10.2189" transform="matrix(-0.965926 -0.258819 -0.258819 0.965926 39.9495 48.9169)" fill="black"/>
<ellipse cx="33.0306" cy="100.273" rx="9.20245" ry="12.2699" transform="rotate(15 33.0306 100.273)" fill="black"/>
<defs>
<filter id="filter0_d_46_929" x="12.9986" y="0" width="146.502" height="110.541" filterUnits="userSpaceOnUse" color-interpolation-filters="sRGB">
<feFlood flood-opacity="0" result="BackgroundImageFix"/>
<feColorMatrix in="SourceAlpha" type="matrix" values="0 0 0 0 0 0 0 0 0 0 0 0 0 0 0 0 0 0 127 0" result="hardAlpha"/>
<feOffset dx="5" dy="8"/>
<feGaussianBlur stdDeviation="2.5"/>
<feComposite in2="hardAlpha" operator="out"/>
<feColorMatrix type="matrix" values="0 0 0 0 0 0 0 0 0 0 0 0 0 0 0 0 0 0 0.2 0"/>
<feBlend mode="normal" in2="BackgroundImageFix" result="effect1_dropShadow_46_929"/>
<feBlend mode="normal" in="SourceGraphic" in2="effect1_dropShadow_46_929" result="shape"/>
</filter>
<filter id="filter1_f_46_929" x="17.5966" y="39.2766" width="38.4819" height="42.413" filterUnits="userSpaceOnUse" color-interpolation-filters="sRGB">
<feFlood flood-opacity="0" result="BackgroundImageFix"/>
<feBlend mode="normal" in="SourceGraphic" in2="BackgroundImageFix" result="shape"/>
<feGaussianBlur stdDeviation="0.454172" result="effect1_foregroundBlur_46_929"/>
</filter>
<filter id="filter2_f_46_929" x="46.9215" y="47.1846" width="38.4819" height="42.413" filterUnits="userSpaceOnUse" color-interpolation-filters="sRGB">
<feFlood flood-opacity="0" result="BackgroundImageFix"/>
<feBlend mode="normal" in="SourceGraphic" in2="BackgroundImageFix" result="shape"/>
<feGaussianBlur stdDeviation="0.454172" result="effect1_foregroundBlur_46_929"/>
</filter>
<radialGradient id="paint0_radial_46_929" cx="0" cy="0" r="1" gradientUnits="userSpaceOnUse" gradientTransform="translate(88.5 98.5398) rotate(45) scale(79.9031)">
<stop stop-color="#FD6B5E"/>
<stop offset="1" stop-color="#FFC2B5"/>
</radialGradient>
<radialGradient id="paint1_radial_46_929" cx="0" cy="0" r="1" gradientUnits="userSpaceOnUse" gradientTransform="translate(18.1669) rotate(90) scale(40.8755 36.3337)">
<stop stop-color="white"/>
<stop offset="1" stop-color="white" stop-opacity="0.5"/>
</radialGradient>
<radialGradient id="paint2_radial_46_929" cx="0" cy="0" r="1" gradientUnits="userSpaceOnUse" gradientTransform="translate(18.1669) rotate(90) scale(40.8755 36.3337)">
<stop stop-color="white"/>
<stop offset="1" stop-color="white" stop-opacity="0.5"/>
</radialGradient>
</defs>
</svg>
