<svg width="134" height="156" viewBox="0 0 134 156" fill="none" xmlns="http://www.w3.org/2000/svg">
<circle cx="72.5" cy="72.5" r="72.5" transform="matrix(-1 0 0 1 134 10.0398)" fill="url(#paint0_radial_46_939)"/>
<g filter="url(#filter0_d_46_939)">
<path d="M116 18.5409C116 18.5409 67.1894 36.5321 37.5 28.0409C34 27.0398 28 27.5398 22.5 21.0398C17.6581 15.3176 20.8531 5.74093 31.5 5.03984C40.1523 4.4701 42.594 9.87931 43 18.5408C44.5 50.5399 -10.5 92.5408 -10.5 92.5408" stroke="black" stroke-width="10" stroke-linecap="round" shape-rendering="crispEdges"/>
</g>
<g filter="url(#filter1_f_46_939)">
<ellipse cx="97.1625" cy="60.4831" rx="18.1669" ry="20.4377" transform="rotate(-15 97.1625 60.4831)" fill="url(#paint1_radial_46_939)"/>
</g>
<g filter="url(#filter2_f_46_939)">
<ellipse cx="67.8375" cy="68.3911" rx="18.1669" ry="20.4377" transform="rotate(-15 67.8375 68.3911)" fill="url(#paint2_radial_46_939)"/>
</g>
<ellipse cx="76.4024" cy="65.52" rx="9.08344" ry="10.2189" transform="rotate(-15 76.4024 65.52)" fill="black"/>
<ellipse cx="105.469" cy="56.4366" rx="9.08344" ry="10.2189" transform="rotate(-15 105.469 56.4366)" fill="black"/>
<ellipse cx="9.20245" cy="12.2699" rx="9.20245" ry="12.2699" transform="matrix(-0.965926 0.258819 0.258819 0.965926 106.683 86.0398)" fill="black"/>
<defs>
<filter id="filter0_d_46_939" x="-15.5002" y="0" width="146.502" height="110.541" filterUnits="userSpaceOnUse" color-interpolation-filters="sRGB">
<feFlood flood-opacity="0" result="BackgroundImageFix"/>
<feColorMatrix in="SourceAlpha" type="matrix" values="0 0 0 0 0 0 0 0 0 0 0 0 0 0 0 0 0 0 127 0" result="hardAlpha"/>
<feOffset dx="5" dy="8"/>
<feGaussianBlur stdDeviation="2.5"/>
<feComposite in2="hardAlpha" operator="out"/>
<feColorMatrix type="matrix" values="0 0 0 0 0 0 0 0 0 0 0 0 0 0 0 0 0 0 0.2 0"/>
<feBlend mode="normal" in2="BackgroundImageFix" result="effect1_dropShadow_46_939"/>
<feBlend mode="normal" in="SourceGraphic" in2="effect1_dropShadow_46_939" result="shape"/>
</filter>
<filter id="filter1_f_46_939" x="77.9215" y="39.2766" width="38.482" height="42.4131" filterUnits="userSpaceOnUse" color-interpolation-filters="sRGB">
<feFlood flood-opacity="0" result="BackgroundImageFix"/>
<feBlend mode="normal" in="SourceGraphic" in2="BackgroundImageFix" result="shape"/>
<feGaussianBlur stdDeviation="0.454172" result="effect1_foregroundBlur_46_939"/>
</filter>
<filter id="filter2_f_46_939" x="48.5965" y="47.1846" width="38.482" height="42.4131" filterUnits="userSpaceOnUse" color-interpolation-filters="sRGB">
<feFlood flood-opacity="0" result="BackgroundImageFix"/>
<feBlend mode="normal" in="SourceGraphic" in2="BackgroundImageFix" result="shape"/>
<feGaussianBlur stdDeviation="0.454172" result="effect1_foregroundBlur_46_939"/>
</filter>
<radialGradient id="paint0_radial_46_939" cx="0" cy="0" r="1" gradientUnits="userSpaceOnUse" gradientTransform="translate(88.5 88.5) rotate(45) scale(79.9031)">
<stop stop-color="#FD6B5E"/>
<stop offset="1" stop-color="#FFC2B5"/>
</radialGradient>
<radialGradient id="paint1_radial_46_939" cx="0" cy="0" r="1" gradientUnits="userSpaceOnUse" gradientTransform="translate(97.1625 40.0454) rotate(90) scale(40.8755 36.3337)">
<stop stop-color="white"/>
<stop offset="1" stop-color="white" stop-opacity="0.5"/>
</radialGradient>
<radialGradient id="paint2_radial_46_939" cx="0" cy="0" r="1" gradientUnits="userSpaceOnUse" gradientTransform="translate(67.8375 47.9534) rotate(90) scale(40.8755 36.3337)">
<stop stop-color="white"/>
<stop offset="1" stop-color="white" stop-opacity="0.5"/>
</radialGradient>
</defs>
</svg>
