<svg width="144" height="193" viewBox="0 0 144 193" fill="none" xmlns="http://www.w3.org/2000/svg">
<circle cx="90" cy="90" r="90" transform="matrix(-1 0 0 1 144 13)" fill="url(#paint0_radial_46_972)"/>
<g filter="url(#filter0_d_46_972)">
<path d="M106.5 5C106.5 5 86.4905 26.3443 70.5 35.5C37.3324 54.4907 -7.32692 47.5 -10.5 53C-13.6731 58.5 -5.88932 90.927 -2.5 99.5C6 121 15.5 130 15.5 130" stroke="black" stroke-width="10" stroke-linecap="round"/>
</g>
<path d="M55.0115 126.71C55.0115 126.71 77.0613 141.698 89.4117 116" stroke="black" stroke-width="10" stroke-linecap="round"/>
<g filter="url(#filter1_f_46_972)">
<ellipse cx="104.75" cy="77.8557" rx="20" ry="22.5" fill="url(#paint1_radial_46_972)"/>
</g>
<g filter="url(#filter2_f_46_972)">
<ellipse cx="71.3127" cy="77.9093" rx="20" ry="22.5" fill="url(#paint2_radial_46_972)"/>
</g>
<ellipse cx="114.737" cy="75.9196" rx="10" ry="11.25" fill="black"/>
<path d="M72 69L81.1147 74.2585C82.9656 75.3263 83.1384 77.932 81.4446 79.2349L72 86.5" stroke="black" stroke-width="10" stroke-linecap="round"/>
<path d="M121 45.9696C110.116 34.9527 92.5276 39.0936 89.1218 48.7585" stroke="black" stroke-width="10" stroke-linecap="round"/>
<defs>
<filter id="filter0_d_46_972" x="-16.2446" y="0" width="137.745" height="148" filterUnits="userSpaceOnUse" color-interpolation-filters="sRGB">
<feFlood flood-opacity="0" result="BackgroundImageFix"/>
<feColorMatrix in="SourceAlpha" type="matrix" values="0 0 0 0 0 0 0 0 0 0 0 0 0 0 0 0 0 0 127 0" result="hardAlpha"/>
<feOffset dx="5" dy="8"/>
<feGaussianBlur stdDeviation="2.5"/>
<feComposite in2="hardAlpha" operator="out"/>
<feColorMatrix type="matrix" values="0 0 0 0 0 0 0 0 0 0 0 0 0 0 0 0 0 0 0.2 0"/>
<feBlend mode="normal" in2="BackgroundImageFix" result="effect1_dropShadow_46_972"/>
<feBlend mode="normal" in="SourceGraphic" in2="effect1_dropShadow_46_972" result="shape"/>
</filter>
<filter id="filter1_f_46_972" x="83.75" y="54.3557" width="42" height="47" filterUnits="userSpaceOnUse" color-interpolation-filters="sRGB">
<feFlood flood-opacity="0" result="BackgroundImageFix"/>
<feBlend mode="normal" in="SourceGraphic" in2="BackgroundImageFix" result="shape"/>
<feGaussianBlur stdDeviation="0.5" result="effect1_foregroundBlur_46_972"/>
</filter>
<filter id="filter2_f_46_972" x="50.3127" y="54.4093" width="42" height="47" filterUnits="userSpaceOnUse" color-interpolation-filters="sRGB">
<feFlood flood-opacity="0" result="BackgroundImageFix"/>
<feBlend mode="normal" in="SourceGraphic" in2="BackgroundImageFix" result="shape"/>
<feGaussianBlur stdDeviation="0.5" result="effect1_foregroundBlur_46_972"/>
</filter>
<radialGradient id="paint0_radial_46_972" cx="0" cy="0" r="1" gradientUnits="userSpaceOnUse" gradientTransform="translate(114.5 117.5) rotate(43.6574) scale(90.5345)">
<stop stop-color="#FFBF3B"/>
<stop offset="1" stop-color="#FEE5AC"/>
</radialGradient>
<radialGradient id="paint1_radial_46_972" cx="0" cy="0" r="1" gradientUnits="userSpaceOnUse" gradientTransform="translate(104.75 55.3557) rotate(90) scale(45 40)">
<stop stop-color="white"/>
<stop offset="1" stop-color="white" stop-opacity="0.5"/>
</radialGradient>
<radialGradient id="paint2_radial_46_972" cx="0" cy="0" r="1" gradientUnits="userSpaceOnUse" gradientTransform="translate(71.3127 55.4093) rotate(90) scale(45 40)">
<stop stop-color="white"/>
<stop offset="1" stop-color="white" stop-opacity="0.5"/>
</radialGradient>
</defs>
</svg>
