<svg width="144" height="193" viewBox="0 0 144 193" fill="none" xmlns="http://www.w3.org/2000/svg">
<circle cx="90" cy="103" r="90" fill="url(#paint0_radial_46_931)"/>
<g filter="url(#filter0_d_46_931)">
<path d="M37.5 5.00003C37.5 5.00003 57.5095 26.3444 73.5 35.5C106.668 54.4907 151.327 47.5 154.5 53C157.673 58.5 149.889 90.927 146.5 99.5C138 121 128.5 130 128.5 130" stroke="black" stroke-width="10" stroke-linecap="round"/>
</g>
<path d="M88.9885 126.71C88.9885 126.71 66.9387 141.698 54.5883 116" stroke="black" stroke-width="10" stroke-linecap="round"/>
<g filter="url(#filter1_f_46_931)">
<ellipse cx="20" cy="22.5" rx="20" ry="22.5" transform="matrix(-1 8.63605e-08 8.63605e-08 1 59.25 55.3557)" fill="url(#paint1_radial_46_931)"/>
</g>
<g filter="url(#filter2_f_46_931)">
<ellipse cx="20" cy="22.5" rx="20" ry="22.5" transform="matrix(-1 8.63605e-08 8.63605e-08 1 92.6873 55.4093)" fill="url(#paint2_radial_46_931)"/>
</g>
<ellipse cx="10" cy="11.25" rx="10" ry="11.25" transform="matrix(-1 8.63605e-08 8.63605e-08 1 39.2634 64.6696)" fill="black"/>
<path d="M72 69L62.8853 74.2585C61.0344 75.3264 60.8616 77.932 62.5554 79.2349L72 86.5" stroke="black" stroke-width="10" stroke-linecap="round"/>
<path d="M23 45.9696C33.884 34.9527 51.4724 39.0936 54.8782 48.7586" stroke="black" stroke-width="10" stroke-linecap="round"/>
<defs>
<filter id="filter0_d_46_931" x="32.5" y="0" width="137.745" height="148" filterUnits="userSpaceOnUse" color-interpolation-filters="sRGB">
<feFlood flood-opacity="0" result="BackgroundImageFix"/>
<feColorMatrix in="SourceAlpha" type="matrix" values="0 0 0 0 0 0 0 0 0 0 0 0 0 0 0 0 0 0 127 0" result="hardAlpha"/>
<feOffset dx="5" dy="8"/>
<feGaussianBlur stdDeviation="2.5"/>
<feComposite in2="hardAlpha" operator="out"/>
<feColorMatrix type="matrix" values="0 0 0 0 0 0 0 0 0 0 0 0 0 0 0 0 0 0 0.2 0"/>
<feBlend mode="normal" in2="BackgroundImageFix" result="effect1_dropShadow_46_931"/>
<feBlend mode="normal" in="SourceGraphic" in2="effect1_dropShadow_46_931" result="shape"/>
</filter>
<filter id="filter1_f_46_931" x="18.25" y="54.3557" width="42" height="47" filterUnits="userSpaceOnUse" color-interpolation-filters="sRGB">
<feFlood flood-opacity="0" result="BackgroundImageFix"/>
<feBlend mode="normal" in="SourceGraphic" in2="BackgroundImageFix" result="shape"/>
<feGaussianBlur stdDeviation="0.5" result="effect1_foregroundBlur_46_931"/>
</filter>
<filter id="filter2_f_46_931" x="51.6873" y="54.4093" width="42" height="47" filterUnits="userSpaceOnUse" color-interpolation-filters="sRGB">
<feFlood flood-opacity="0" result="BackgroundImageFix"/>
<feBlend mode="normal" in="SourceGraphic" in2="BackgroundImageFix" result="shape"/>
<feGaussianBlur stdDeviation="0.5" result="effect1_foregroundBlur_46_931"/>
</filter>
<radialGradient id="paint0_radial_46_931" cx="0" cy="0" r="1" gradientUnits="userSpaceOnUse" gradientTransform="translate(114.5 130.5) rotate(43.6574) scale(90.5345)">
<stop stop-color="#FFBF3B"/>
<stop offset="1" stop-color="#FEE5AC"/>
</radialGradient>
<radialGradient id="paint1_radial_46_931" cx="0" cy="0" r="1" gradientUnits="userSpaceOnUse" gradientTransform="translate(20) rotate(90) scale(45 40)">
<stop stop-color="white"/>
<stop offset="1" stop-color="white" stop-opacity="0.5"/>
</radialGradient>
<radialGradient id="paint2_radial_46_931" cx="0" cy="0" r="1" gradientUnits="userSpaceOnUse" gradientTransform="translate(20) rotate(90) scale(45 40)">
<stop stop-color="white"/>
<stop offset="1" stop-color="white" stop-opacity="0.5"/>
</radialGradient>
</defs>
</svg>
