<svg width="18" height="20" viewBox="0 0 18 20" fill="none" xmlns="http://www.w3.org/2000/svg">
<path d="M6.00009 15V16C6.00009 16.7956 6.31616 17.5587 6.87877 18.1213C7.44138 18.6839 8.20444 19 9.00009 19C9.79574 19 10.5588 18.6839 11.1214 18.1213C11.684 17.5587 12.0001 16.7956 12.0001 16V15M7.00009 3C7.00009 2.46957 7.21081 1.96086 7.58588 1.58579C7.96095 1.21071 8.46966 1 9.00009 1C9.53052 1 10.0392 1.21071 10.4143 1.58579C10.7894 1.96086 11.0001 2.46957 11.0001 3C12.1485 3.54303 13.1275 4.38833 13.8321 5.4453C14.5368 6.50227 14.9405 7.73107 15.0001 9V12C15.0753 12.6217 15.2955 13.2171 15.6429 13.7381C15.9903 14.2592 16.4552 14.6914 17.0001 15H1.00009C1.54503 14.6914 2.0099 14.2592 2.35728 13.7381C2.70466 13.2171 2.92484 12.6217 3.00009 12V9C3.05965 7.73107 3.46339 6.50227 4.16804 5.4453C4.87269 4.38833 5.85168 3.54303 7.00009 3Z" stroke="black" stroke-width="2" stroke-linecap="round" stroke-linejoin="round"/>
</svg>
