<svg width="18" height="16" viewBox="0 0 18 16" fill="none" xmlns="http://www.w3.org/2000/svg">
<path d="M8.93406 3.62777e-07C9.70975 3.62777e-07 10.4327 0.379319 10.8753 1.01287L10.9606 1.14283L17.5512 12.1471C17.7515 12.494 17.8604 12.8861 17.8679 13.2866C17.8753 13.6871 17.781 14.0829 17.5938 14.437C17.4066 14.7911 17.1325 15.0919 16.7973 15.3112C16.4621 15.5305 16.0768 15.6612 15.6773 15.691L15.5189 15.6975H2.34025C1.94038 15.693 1.54818 15.5872 1.20024 15.3901C0.852301 15.193 0.559975 14.911 0.350547 14.5703C0.14112 14.2296 0.0214189 13.8414 0.00261777 13.442C-0.0161833 13.0426 0.0665283 12.6449 0.243032 12.286L0.323445 12.1358L6.91075 1.13958C7.12143 0.791572 7.41836 0.503828 7.77281 0.304189C8.12727 0.10455 8.52725 -0.000224998 8.93406 3.62777e-07ZM8.93406 7.57825H8.12181L8.02678 7.58394C7.82936 7.60742 7.64742 7.70249 7.5154 7.85114C7.38339 7.99978 7.31047 8.19169 7.31047 8.3905C7.31047 8.5893 7.38339 8.78121 7.5154 8.92985C7.64742 9.0785 7.82936 9.17357 8.02678 9.19705L8.12181 9.20274V11.6395L8.1275 11.7345C8.14888 11.9158 8.23072 12.0846 8.35981 12.2137C8.4889 12.3428 8.65772 12.4247 8.83903 12.446L8.93406 12.4517H9.7463L9.84134 12.446C10.0226 12.4247 10.1915 12.3428 10.3206 12.2137C10.4496 12.0846 10.5315 11.9158 10.5529 11.7345L10.5585 11.6395L10.5529 11.5444C10.5334 11.3787 10.4635 11.223 10.3524 11.0985C10.2414 10.9739 10.0947 10.8866 9.93231 10.8483L9.84134 10.8321L9.7463 10.8272V8.3905L9.74062 8.29546C9.71924 8.11416 9.6374 7.94534 9.50831 7.81625C9.37921 7.68716 9.2104 7.60532 9.02909 7.58394L8.93406 7.57825ZM8.94218 5.14151L8.83903 5.1472C8.64161 5.17068 8.45966 5.26575 8.32765 5.4144C8.19563 5.56305 8.12272 5.75495 8.12272 5.95376C8.12272 6.15257 8.19563 6.34447 8.32765 6.49312C8.45966 6.64177 8.64161 6.73684 8.83903 6.76032L8.93406 6.766L9.03721 6.76032C9.23463 6.73684 9.41658 6.64177 9.54859 6.49312C9.68061 6.34447 9.75352 6.15257 9.75352 5.95376C9.75352 5.75495 9.68061 5.56305 9.54859 5.4144C9.41658 5.26575 9.23463 5.17068 9.03721 5.1472L8.94218 5.14151Z" fill="#5E6D93"/>
</svg>
