<svg width="16" height="20" viewBox="0 0 16 20" fill="none" xmlns="http://www.w3.org/2000/svg">
<path d="M5 3H3C2.46957 3 1.96086 3.21071 1.58579 3.58579C1.21071 3.96086 1 4.46957 1 5V17C1 17.5304 1.21071 18.0391 1.58579 18.4142C1.96086 18.7893 2.46957 19 3 19H13C13.5304 19 14.0391 18.7893 14.4142 18.4142C14.7893 18.0391 15 17.5304 15 17V5C15 4.46957 14.7893 3.96086 14.4142 3.58579C14.0391 3.21071 13.5304 3 13 3H11" stroke="black" stroke-width="2" stroke-linecap="round" stroke-linejoin="round"/>
<path d="M5 3C5 2.46957 5.21072 1.96086 5.58579 1.58579C5.96086 1.21071 6.46957 1 7 1H9C9.53044 1 10.0391 1.21071 10.4142 1.58579C10.7893 1.96086 11 2.46957 11 3C11 3.53043 10.7893 4.03914 10.4142 4.41421C10.0391 4.78929 9.53044 5 9 5H7C6.46957 5 5.96086 4.78929 5.58579 4.41421C5.21072 4.03914 5 3.53043 5 3ZM7.993 14.75L10.74 11.935C11.0798 11.5811 11.2695 11.1096 11.2695 10.619C11.2695 10.1284 11.0798 9.65685 10.74 9.303C10.5744 9.13059 10.3756 8.99342 10.1557 8.89972C9.9357 8.80602 9.69908 8.75773 9.46 8.75773C9.22092 8.75773 8.9843 8.80602 8.76435 8.89972C8.5444 8.99342 8.34564 9.13059 8.18 9.303L7.997 9.491L7.814 9.302C7.64837 9.12959 7.44961 8.99242 7.22965 8.89872C7.0097 8.80502 6.77308 8.75672 6.534 8.75672C6.29492 8.75672 6.05831 8.80502 5.83835 8.89872C5.6184 8.99242 5.41964 9.12959 5.254 9.302C4.91421 9.65585 4.72446 10.1274 4.72446 10.618C4.72446 11.1086 4.91421 11.5801 5.254 11.934L7.992 14.759L7.993 14.75Z" stroke="black" stroke-width="2" stroke-linecap="round" stroke-linejoin="round"/>
</svg>
