<svg width="18" height="18" viewBox="0 0 18 18" fill="none" xmlns="http://www.w3.org/2000/svg">
<g clip-path="url(#clip0_199_1637)">
<path d="M8.99997 1.5C12 1.5 17 3 17 9.5C17 16 17 17.5 15.5 17.5C14 17.5 12 16 8.99997 16C5.99997 16 4.04247 17.5 2.49997 17.5C0.828467 17.5 0.999967 11.5 0.999967 9.5C0.999967 3 5.99997 1.5 8.99997 1.5Z" fill="#FFAC33"/>
<path d="M3 9.28101C3 5.01801 5.6865 1.56201 9 1.56201C12.3135 1.56201 15 5.01801 15 9.28101C15 13.544 12.3135 17 9 17C5.6865 17 3 13.544 3 9.28101Z" fill="#FFDC5D"/>
<path d="M9 15C7.8265 15 7.2125 14.42 7.1465 14.3535C7.09975 14.3074 7.06253 14.2526 7.03698 14.1921C7.01143 14.1316 6.99804 14.0667 6.99757 14.001C6.99711 13.9354 7.00958 13.8703 7.03427 13.8094C7.05897 13.7486 7.0954 13.6932 7.1415 13.6465C7.18759 13.5997 7.24244 13.5625 7.30292 13.537C7.36339 13.5114 7.42831 13.498 7.49396 13.4976C7.55961 13.4971 7.62471 13.5096 7.68554 13.5343C7.74637 13.559 7.80174 13.5954 7.8485 13.6415C7.874 13.665 8.2515 14 9 14C9.7595 14 10.1365 13.655 10.1525 13.6405C10.2486 13.5508 10.376 13.5021 10.5074 13.5048C10.6389 13.5075 10.7641 13.5614 10.8565 13.655C10.948 13.7484 10.999 13.8741 10.9984 14.0049C10.9978 14.1356 10.9458 14.2609 10.8535 14.3535C10.7875 14.42 10.1735 15 9 15Z" fill="#DF1F32"/>
<path d="M9.5 12.5H8.5C8.36739 12.5 8.24021 12.4473 8.14645 12.3536C8.05268 12.2598 8 12.1326 8 12C8 11.8674 8.05268 11.7402 8.14645 11.6464C8.24021 11.5527 8.36739 11.5 8.5 11.5H9.5C9.63261 11.5 9.75979 11.5527 9.85355 11.6464C9.94732 11.7402 10 11.8674 10 12C10 12.1326 9.94732 12.2598 9.85355 12.3536C9.75979 12.4473 9.63261 12.5 9.5 12.5Z" fill="#C1694F"/>
<path d="M1.532 12C1.517 11.8375 1.5 11.6765 1.5 11.5C1.5 9 3 11.781 3 10C3 8.219 4 8 5 7L6.5 5.5C6.5 5.5 9 7 11 7C13 7 15 8 15 10C15 12 16.5 9 16.5 11.5C16.5 11.6775 16.4835 11.8365 16.471 12H16.9955C17 11.2615 17 10.434 17 9.5C17 3 12 0.5 9 0.5C6 0.5 1 3 1 9.5C1 10.079 0.986003 10.993 1.006 12H1.532Z" fill="#FFAC33"/>
<path d="M6.5 11C6.36739 11 6.24021 10.9473 6.14645 10.8536C6.05268 10.7598 6 10.6326 6 10.5V9.5C6 9.36739 6.05268 9.24021 6.14645 9.14645C6.24021 9.05268 6.36739 9 6.5 9C6.63261 9 6.75979 9.05268 6.85355 9.14645C6.94732 9.24021 7 9.36739 7 9.5V10.5C7 10.6326 6.94732 10.7598 6.85355 10.8536C6.75979 10.9473 6.63261 11 6.5 11ZM11.5 11C11.3674 11 11.2402 10.9473 11.1464 10.8536C11.0527 10.7598 11 10.6326 11 10.5V9.5C11 9.36739 11.0527 9.24021 11.1464 9.14645C11.2402 9.05268 11.3674 9 11.5 9C11.6326 9 11.7598 9.05268 11.8536 9.14645C11.9473 9.24021 12 9.36739 12 9.5V10.5C12 10.6326 11.9473 10.7598 11.8536 10.8536C11.7598 10.9473 11.6326 11 11.5 11Z" fill="#662113"/>
</g>
<defs>
<clipPath id="clip0_199_1637">
<rect width="18" height="18" fill="white"/>
</clipPath>
</defs>
</svg>
