<svg width="66" height="66" viewBox="0 0 66 66" fill="none" xmlns="http://www.w3.org/2000/svg">
<g filter="url(#filter0_d_199_1467)">
<rect x="7.79761" y="7.79761" width="50" height="50" rx="25" fill="white"/>
</g>
<path d="M31.9165 20.4011C24.3125 20.4011 20.4955 25.3381 19.6035 28.9891C18.9505 31.6621 19.9405 34.7831 20.2425 38.1971C20.5095 41.2271 22.2755 43.7711 24.0855 44.2861C26.6885 47.5701 29.4555 47.4291 34.1025 47.4291C43.1755 47.4291 46.5745 40.6471 46.5745 32.8501C46.5735 26.8901 42.3715 20.4011 31.9165 20.4011Z" fill="#FFAC33"/>
<path d="M43.0565 33.488C42.1785 32.272 41.0545 31.294 38.5905 30.947C39.5145 31.37 40.3995 32.833 40.5155 33.642C40.6315 34.451 40.7465 35.105 40.0155 34.297C37.0845 31.058 33.8935 32.333 30.7315 30.355C28.5225 28.973 27.8495 27.444 27.8495 27.444C27.8495 27.444 27.5805 29.484 24.2305 31.564C23.2595 32.167 22.1015 33.509 21.4585 35.491C20.9955 36.915 21.0475 37.798 21.1615 38.801C22.3435 45.191 26.6845 48.798 32.7975 48.798C38.9045 48.798 43.2395 45.911 44.4255 39.225C44.4475 38.937 44.4705 38.649 44.4705 38.356C44.4705 35.855 44.0575 34.874 43.0565 33.488Z" fill="#FFDC5D"/>
<path d="M37.5045 41.0905C37.1175 40.7035 36.5745 40.8985 36.1005 41.0805C35.6265 41.2635 34.5475 41.7975 32.7975 41.7975C31.0475 41.7975 29.9685 41.2635 29.4945 41.0805C29.0205 40.8975 28.4775 40.7035 28.0905 41.0905C27.903 41.278 27.7977 41.5323 27.7977 41.7975C27.7977 42.0626 27.903 42.317 28.0905 42.5045C28.2225 42.6375 30.0265 43.7975 32.7975 43.7975C35.5685 43.7975 37.3725 42.6375 37.5045 42.5045C37.692 42.317 37.7973 42.0626 37.7973 41.7975C37.7973 41.5323 37.692 41.278 37.5045 41.0905ZM33.7975 39.7975H31.7975C31.5323 39.7975 31.2779 39.6921 31.0904 39.5046C30.9029 39.3171 30.7975 39.0627 30.7975 38.7975C30.7975 38.5323 30.9029 38.2779 31.0904 38.0904C31.2779 37.9028 31.5323 37.7975 31.7975 37.7975H33.7975C34.0627 37.7975 34.3171 37.9028 34.5046 38.0904C34.6922 38.2779 34.7975 38.5323 34.7975 38.7975C34.7975 39.0627 34.6922 39.3171 34.5046 39.5046C34.3171 39.6921 34.0627 39.7975 33.7975 39.7975Z" fill="#C1694F"/>
<path d="M28.7977 37.7976C28.5325 37.7976 28.2782 37.6923 28.0906 37.5047C27.9031 37.3172 27.7977 37.0628 27.7977 36.7976V35.7976C27.7977 35.5324 27.9031 35.278 28.0906 35.0905C28.2782 34.903 28.5325 34.7976 28.7977 34.7976C29.0629 34.7976 29.3173 34.903 29.5048 35.0905C29.6924 35.278 29.7977 35.5324 29.7977 35.7976V36.7976C29.7977 37.0628 29.6924 37.3172 29.5048 37.5047C29.3173 37.6923 29.0629 37.7976 28.7977 37.7976ZM36.7977 37.7976C36.5325 37.7976 36.2782 37.6923 36.0906 37.5047C35.9031 37.3172 35.7977 37.0628 35.7977 36.7976V35.7976C35.7977 35.5324 35.9031 35.278 36.0906 35.0905C36.2782 34.903 36.5325 34.7976 36.7977 34.7976C37.0629 34.7976 37.3173 34.903 37.5048 35.0905C37.6924 35.278 37.7977 35.5324 37.7977 35.7976V36.7976C37.7977 37.0628 37.6924 37.3172 37.5048 37.5047C37.3173 37.6923 37.0629 37.7976 36.7977 37.7976Z" fill="#662113"/>
<defs>
<filter id="filter0_d_199_1467" x="5.14984e-05" y="5.14984e-05" width="65.5951" height="65.5951" filterUnits="userSpaceOnUse" color-interpolation-filters="sRGB">
<feFlood flood-opacity="0" result="BackgroundImageFix"/>
<feColorMatrix in="SourceAlpha" type="matrix" values="0 0 0 0 0 0 0 0 0 0 0 0 0 0 0 0 0 0 127 0" result="hardAlpha"/>
<feOffset/>
<feGaussianBlur stdDeviation="3.89878"/>
<feComposite in2="hardAlpha" operator="out"/>
<feColorMatrix type="matrix" values="0 0 0 0 0 0 0 0 0 0 0 0 0 0 0 0 0 0 0.25 0"/>
<feBlend mode="normal" in2="BackgroundImageFix" result="effect1_dropShadow_199_1467"/>
<feBlend mode="normal" in="SourceGraphic" in2="effect1_dropShadow_199_1467" result="shape"/>
</filter>
</defs>
</svg>
