<svg width="20" height="20" viewBox="0 0 20 20" fill="none" xmlns="http://www.w3.org/2000/svg">
<path d="M1 10C1 11.1819 1.23279 12.3522 1.68508 13.4442C2.13738 14.5361 2.80031 15.5282 3.63604 16.364C4.47177 17.1997 5.46392 17.8626 6.55585 18.3149C7.64778 18.7672 8.8181 19 10 19C11.1819 19 12.3522 18.7672 13.4442 18.3149C14.5361 17.8626 15.5282 17.1997 16.364 16.364C17.1997 15.5282 17.8626 14.5361 18.3149 13.4442C18.7672 12.3522 19 11.1819 19 10C19 8.8181 18.7672 7.64778 18.3149 6.55585C17.8626 5.46392 17.1997 4.47177 16.364 3.63604C15.5282 2.80031 14.5361 2.13738 13.4442 1.68508C12.3522 1.23279 11.1819 1 10 1C8.8181 1 7.64778 1.23279 6.55585 1.68508C5.46392 2.13738 4.47177 2.80031 3.63604 3.63604C2.80031 4.47177 2.13738 5.46392 1.68508 6.55585C1.23279 7.64778 1 8.8181 1 10Z" stroke="black" stroke-width="2" stroke-linecap="round" stroke-linejoin="round"/>
<path d="M4.16806 16.849C4.41557 16.0252 4.92203 15.3032 5.61231 14.79C6.30258 14.2768 7.13991 13.9997 8.00006 14H12.0001C12.8613 13.9997 13.6997 14.2774 14.3904 14.7918C15.0812 15.3062 15.5875 16.0298 15.8341 16.855M7.00006 8C7.00006 8.79565 7.31613 9.55871 7.87874 10.1213C8.44135 10.6839 9.20441 11 10.0001 11C10.7957 11 11.5588 10.6839 12.1214 10.1213C12.684 9.55871 13.0001 8.79565 13.0001 8C13.0001 7.20435 12.684 6.44129 12.1214 5.87868C11.5588 5.31607 10.7957 5 10.0001 5C9.20441 5 8.44135 5.31607 7.87874 5.87868C7.31613 6.44129 7.00006 7.20435 7.00006 8Z" stroke="black" stroke-width="2" stroke-linecap="round" stroke-linejoin="round"/>
</svg>
