<svg width="24" height="26" viewBox="0 0 24 26" fill="none" xmlns="http://www.w3.org/2000/svg">
<path d="M1 3.66667C1 2.95942 1.28095 2.28115 1.78105 1.78105C2.28115 1.28095 2.95942 1 3.66667 1H19.6667C20.3739 1 21.0522 1.28095 21.5523 1.78105C22.0524 2.28115 22.3333 2.95942 22.3333 3.66667V22.3333C22.3333 23.0406 22.0524 23.7189 21.5523 24.219C21.0522 24.719 20.3739 25 19.6667 25H3.66667C2.95942 25 2.28115 24.719 1.78105 24.219C1.28095 23.7189 1 23.0406 1 22.3333V3.66667Z" stroke="black" stroke-width="2" stroke-linecap="round" stroke-linejoin="round"/>
<path d="M6.33337 15.6666V15.6799M11.6667 15.6666V15.6799M17 15.6666V15.6799M6.33337 19.6666V19.6799M11.6667 19.6666V19.6799M17 19.6666V19.6799M6.33337 7.66659C6.33337 7.31296 6.47385 6.97383 6.7239 6.72378C6.97395 6.47373 7.31309 6.33325 7.66671 6.33325H15.6667C16.0203 6.33325 16.3595 6.47373 16.6095 6.72378C16.8596 6.97383 17 7.31296 17 7.66659V8.99992C17 9.35354 16.8596 9.69268 16.6095 9.94273C16.3595 10.1928 16.0203 10.3333 15.6667 10.3333H7.66671C7.31309 10.3333 6.97395 10.1928 6.7239 9.94273C6.47385 9.69268 6.33337 9.35354 6.33337 8.99992V7.66659Z" stroke="black" stroke-width="2" stroke-linecap="round" stroke-linejoin="round"/>
</svg>
