<svg width="350" height="240" viewBox="0 0 350 240" fill="none" xmlns="http://www.w3.org/2000/svg">
<rect width="350" height="240" rx="12" fill="#FFECC4"/>
<circle cx="34.1" cy="34.1" r="34.1" transform="matrix(-1 0 0 1 298.2 0)" fill="url(#paint0_radial_177_6373)"/>
<g filter="url(#filter0_d_177_6373)">
<path d="M299.3 40.15C285.275 31.075 275.925 21.725 265.475 0.55L264.1 0C255.3 10.175 246.225 14.3 232.475 14.3" stroke="black" stroke-width="10" stroke-linecap="round"/>
</g>
<g filter="url(#filter1_f_177_6373)">
<circle cx="9.625" cy="9.625" r="9.625" transform="matrix(-0.965926 -0.258819 -0.258819 0.965926 268.5 19.832)" fill="url(#paint1_radial_177_6373)"/>
</g>
<path d="M260.784 27.4083C260.784 27.4083 259.096 16.7068 252.283 25.1306" stroke="black" stroke-width="8" stroke-linecap="round"/>
<path d="M266.708 45.0939C266.708 45.0939 256.746 50.3963 250.381 40.1498" stroke="black" stroke-width="8" stroke-linecap="round"/>
<circle cx="39.875" cy="39.875" r="39.875" transform="matrix(-1 0 0 1 66.75 28.7725)" fill="url(#paint2_radial_177_6373)"/>
<g filter="url(#filter2_d_177_6373)">
<path d="M56.8501 33.4481C56.8501 33.4481 30.0043 43.3433 13.6751 38.6731C11.7501 38.1226 8.4501 38.3976 5.4251 34.8226C2.76204 31.6753 4.5193 26.4082 10.3751 26.0226C15.1339 25.7092 16.4768 28.6843 16.7001 33.4481C17.5251 51.0476 -12.7249 74.1481 -12.7249 74.1481" stroke="black" stroke-width="10" stroke-linecap="round" shape-rendering="crispEdges"/>
</g>
<g filter="url(#filter3_f_177_6373)">
<ellipse cx="46.4893" cy="56.5163" rx="9.99178" ry="11.2408" transform="rotate(-15 46.4893 56.5163)" fill="url(#paint3_radial_177_6373)"/>
</g>
<g filter="url(#filter4_f_177_6373)">
<ellipse cx="30.3604" cy="60.8659" rx="9.99178" ry="11.2408" transform="rotate(-15 30.3604 60.8659)" fill="url(#paint4_radial_177_6373)"/>
</g>
<ellipse cx="35.0713" cy="59.2867" rx="4.99589" ry="5.62038" transform="rotate(-15 35.0713 59.2867)" fill="black"/>
<ellipse cx="51.0582" cy="54.2906" rx="4.99589" ry="5.62038" transform="rotate(-15 51.0582 54.2906)" fill="black"/>
<ellipse cx="5.06135" cy="6.74847" rx="5.06135" ry="6.74847" transform="matrix(-0.965926 0.258819 0.258819 0.965926 51.7256 70.5723)" fill="black"/>
<circle cx="52.25" cy="52.25" r="52.25" transform="matrix(-1 0 0 1 360.5 120)" fill="url(#paint5_radial_177_6373)"/>
<g filter="url(#filter5_d_177_6373)">
<path d="M362.425 156.3C334.774 138.211 317.681 130.539 283.775 122.2" stroke="black" stroke-width="10" stroke-linecap="round"/>
</g>
<g filter="url(#filter6_f_177_6373)">
<ellipse cx="11" cy="12.375" rx="11" ry="12.375" transform="matrix(-0.965926 -0.258819 -0.258819 0.965926 296.544 144.944)" fill="url(#paint6_radial_177_6373)"/>
</g>
<path d="M309.145 183.091C309.145 183.091 297.018 191.334 290.225 177.2" stroke="black" stroke-width="10" stroke-linecap="round"/>
<g filter="url(#filter7_f_177_6373)">
<ellipse cx="11" cy="12.375" rx="11" ry="12.375" transform="matrix(-0.965926 -0.258819 -0.258819 0.965926 314.3 149.732)" fill="url(#paint7_radial_177_6373)"/>
</g>
<ellipse cx="5.5" cy="6.1875" rx="5.5" ry="6.1875" transform="matrix(-0.965926 -0.258819 -0.258819 0.965926 302.2 152.547)" fill="black"/>
<ellipse cx="5.5" cy="6.1875" rx="5.5" ry="6.1875" transform="matrix(-0.965926 -0.258819 -0.258819 0.965926 284.6 147.047)" fill="black"/>
<path d="M319.25 149.975C319.25 149.975 313.653 151.217 308.25 149.975C303.582 148.902 298.625 143.65 298.625 143.65" stroke="black" stroke-width="8" stroke-linecap="round"/>
<circle cx="16.5" cy="16.5" r="16.5" transform="matrix(-1 0 0 1 129.081 61)" fill="url(#paint8_radial_177_6373)"/>
<g filter="url(#filter8_d_177_6373)">
<path d="M131.556 76.1248C124.708 73.4305 121.931 72.5498 117.256 67.0498" stroke="black" stroke-width="5" stroke-linecap="round"/>
</g>
<g filter="url(#filter9_f_177_6373)">
<ellipse cx="5.4046" cy="6.08018" rx="5.4046" ry="6.08018" transform="matrix(-0.965926 -0.258819 -0.258819 0.965926 109.907 68.7471)" fill="url(#paint9_radial_177_6373)"/>
</g>
<g filter="url(#filter10_f_177_6373)">
<ellipse cx="5.4046" cy="6.08018" rx="5.4046" ry="6.08018" transform="matrix(-0.965926 -0.258819 -0.258819 0.965926 118.631 71.0996)" fill="url(#paint10_radial_177_6373)"/>
</g>
<ellipse cx="1.925" cy="2.16563" rx="1.925" ry="2.16563" transform="matrix(-0.965926 -0.258819 -0.258819 0.965926 110.931 72.4463)" fill="black"/>
<ellipse cx="1.925" cy="2.16563" rx="1.925" ry="2.16563" transform="matrix(-0.965926 -0.258819 -0.258819 0.965926 105.431 70.7959)" fill="black"/>
<ellipse cx="1.65" cy="1.88571" rx="1.65" ry="1.88571" transform="matrix(-0.965926 -0.258819 -0.258819 0.965926 111.481 84.4038)" fill="black"/>
<rect x="-1.73386" y="1.08445" width="7.04334" height="12.4721" rx="3.52167" transform="matrix(-0.965926 -0.258819 -0.189982 0.981788 113.779 67.1398)" stroke="black" stroke-width="3"/>
<rect x="-1.73386" y="1.08445" width="7.04334" height="12.4721" rx="3.52167" transform="matrix(-0.965926 -0.258819 -0.189982 0.981788 104.438 64.2702)" stroke="black" stroke-width="3"/>
<circle cx="19.25" cy="19.25" r="19.25" transform="matrix(-1 0 0 1 234.5 159)" fill="url(#paint11_radial_177_6373)"/>
<rect width="5.5" height="11" rx="2.75" transform="matrix(-0.965926 0.258819 0.258819 0.965926 219.553 165.05)" fill="black"/>
<rect width="5.5" height="11" rx="2.75" transform="matrix(-0.965926 0.258819 0.258819 0.965926 208.644 167.8)" fill="black"/>
<circle cx="49.5" cy="49.5" r="49.5" transform="matrix(-1 0 0 1 111 151.4)" fill="url(#paint12_radial_177_6373)"/>
<g filter="url(#filter11_d_177_6373)">
<path d="M90.375 147C90.375 147 79.3698 158.739 70.575 163.775C52.3328 174.22 27.7702 170.375 26.025 173.4C24.2798 176.425 28.5609 194.26 30.425 198.975C35.1 210.8 40.325 215.75 40.325 215.75" stroke="black" stroke-width="10" stroke-linecap="round"/>
</g>
<path d="M62.0561 213.94C62.0561 213.94 74.1835 222.183 80.9762 208.05" stroke="black" stroke-width="10" stroke-linecap="round"/>
<g filter="url(#filter12_f_177_6373)">
<ellipse cx="89.4126" cy="187.07" rx="11" ry="12.375" fill="url(#paint13_radial_177_6373)"/>
</g>
<g filter="url(#filter13_f_177_6373)">
<ellipse cx="71.022" cy="187.1" rx="11" ry="12.375" fill="url(#paint14_radial_177_6373)"/>
</g>
<ellipse cx="94.9048" cy="186.005" rx="5.5" ry="6.1875" fill="black"/>
<path d="M71.3998 182.2L74.6645 184.083C76.5154 185.151 76.6882 187.757 74.9944 189.06L71.3998 191.825" stroke="black" stroke-width="10" stroke-linecap="round"/>
<path d="M98.3498 169.533C92.3636 163.474 82.69 165.751 80.8168 171.067" stroke="black" stroke-width="10" stroke-linecap="round"/>
<defs>
<filter id="filter0_d_177_6373" x="227.475" y="-5.96582" width="86.8257" height="64.1162" filterUnits="userSpaceOnUse" color-interpolation-filters="sRGB">
<feFlood flood-opacity="0" result="BackgroundImageFix"/>
<feColorMatrix in="SourceAlpha" type="matrix" values="0 0 0 0 0 0 0 0 0 0 0 0 0 0 0 0 0 0 127 0" result="hardAlpha"/>
<feOffset dx="5" dy="8"/>
<feGaussianBlur stdDeviation="2.5"/>
<feComposite in2="hardAlpha" operator="out"/>
<feColorMatrix type="matrix" values="0 0 0 0 0 0 0 0 0 0 0 0 0 0 0 0 0 0 0.2 0"/>
<feBlend mode="normal" in2="BackgroundImageFix" result="effect1_dropShadow_177_6373"/>
<feBlend mode="normal" in="SourceGraphic" in2="effect1_dropShadow_177_6373" result="shape"/>
</filter>
<filter id="filter1_f_177_6373" x="246.084" y="16.0107" width="21.2549" height="21.2544" filterUnits="userSpaceOnUse" color-interpolation-filters="sRGB">
<feFlood flood-opacity="0" result="BackgroundImageFix"/>
<feBlend mode="normal" in="SourceGraphic" in2="BackgroundImageFix" result="shape"/>
<feGaussianBlur stdDeviation="0.5" result="effect1_foregroundBlur_177_6373"/>
</filter>
<filter id="filter2_d_177_6373" x="-17.7251" y="21.001" width="89.5767" height="71.1475" filterUnits="userSpaceOnUse" color-interpolation-filters="sRGB">
<feFlood flood-opacity="0" result="BackgroundImageFix"/>
<feColorMatrix in="SourceAlpha" type="matrix" values="0 0 0 0 0 0 0 0 0 0 0 0 0 0 0 0 0 0 127 0" result="hardAlpha"/>
<feOffset dx="5" dy="8"/>
<feGaussianBlur stdDeviation="2.5"/>
<feComposite in2="hardAlpha" operator="out"/>
<feColorMatrix type="matrix" values="0 0 0 0 0 0 0 0 0 0 0 0 0 0 0 0 0 0 0.2 0"/>
<feBlend mode="normal" in2="BackgroundImageFix" result="effect1_dropShadow_177_6373"/>
<feBlend mode="normal" in="SourceGraphic" in2="effect1_dropShadow_177_6373" result="shape"/>
</filter>
<filter id="filter3_f_177_6373" x="35.4979" y="44.4442" width="21.9827" height="24.1443" filterUnits="userSpaceOnUse" color-interpolation-filters="sRGB">
<feFlood flood-opacity="0" result="BackgroundImageFix"/>
<feBlend mode="normal" in="SourceGraphic" in2="BackgroundImageFix" result="shape"/>
<feGaussianBlur stdDeviation="0.454172" result="effect1_foregroundBlur_177_6373"/>
</filter>
<filter id="filter4_f_177_6373" x="19.369" y="48.7938" width="21.9827" height="24.1443" filterUnits="userSpaceOnUse" color-interpolation-filters="sRGB">
<feFlood flood-opacity="0" result="BackgroundImageFix"/>
<feBlend mode="normal" in="SourceGraphic" in2="BackgroundImageFix" result="shape"/>
<feGaussianBlur stdDeviation="0.454172" result="effect1_foregroundBlur_177_6373"/>
</filter>
<filter id="filter5_d_177_6373" x="278.773" y="117.199" width="98.6519" height="57.1016" filterUnits="userSpaceOnUse" color-interpolation-filters="sRGB">
<feFlood flood-opacity="0" result="BackgroundImageFix"/>
<feColorMatrix in="SourceAlpha" type="matrix" values="0 0 0 0 0 0 0 0 0 0 0 0 0 0 0 0 0 0 127 0" result="hardAlpha"/>
<feOffset dx="5" dy="8"/>
<feGaussianBlur stdDeviation="2.5"/>
<feComposite in2="hardAlpha" operator="out"/>
<feColorMatrix type="matrix" values="0 0 0 0 0 0 0 0 0 0 0 0 0 0 0 0 0 0 0.2 0"/>
<feBlend mode="normal" in2="BackgroundImageFix" result="effect1_dropShadow_177_6373"/>
<feBlend mode="normal" in="SourceGraphic" in2="effect1_dropShadow_177_6373" result="shape"/>
</filter>
<filter id="filter6_f_177_6373" x="270.616" y="140.76" width="24.2007" height="26.5811" filterUnits="userSpaceOnUse" color-interpolation-filters="sRGB">
<feFlood flood-opacity="0" result="BackgroundImageFix"/>
<feBlend mode="normal" in="SourceGraphic" in2="BackgroundImageFix" result="shape"/>
<feGaussianBlur stdDeviation="0.5" result="effect1_foregroundBlur_177_6373"/>
</filter>
<filter id="filter7_f_177_6373" x="288.372" y="145.548" width="24.2007" height="26.5811" filterUnits="userSpaceOnUse" color-interpolation-filters="sRGB">
<feFlood flood-opacity="0" result="BackgroundImageFix"/>
<feBlend mode="normal" in="SourceGraphic" in2="BackgroundImageFix" result="shape"/>
<feGaussianBlur stdDeviation="0.5" result="effect1_foregroundBlur_177_6373"/>
</filter>
<filter id="filter8_d_177_6373" x="114.756" y="64.5498" width="29.3008" height="27.0757" filterUnits="userSpaceOnUse" color-interpolation-filters="sRGB">
<feFlood flood-opacity="0" result="BackgroundImageFix"/>
<feColorMatrix in="SourceAlpha" type="matrix" values="0 0 0 0 0 0 0 0 0 0 0 0 0 0 0 0 0 0 127 0" result="hardAlpha"/>
<feOffset dx="5" dy="8"/>
<feGaussianBlur stdDeviation="2.5"/>
<feComposite in2="hardAlpha" operator="out"/>
<feColorMatrix type="matrix" values="0 0 0 0 0 0 0 0 0 0 0 0 0 0 0 0 0 0 0.2 0"/>
<feBlend mode="normal" in2="BackgroundImageFix" result="effect1_dropShadow_177_6373"/>
<feBlend mode="normal" in="SourceGraphic" in2="effect1_dropShadow_177_6373" result="shape"/>
</filter>
<filter id="filter9_f_177_6373" x="96.6592" y="66.1826" width="12.9077" height="14.0771" filterUnits="userSpaceOnUse" color-interpolation-filters="sRGB">
<feFlood flood-opacity="0" result="BackgroundImageFix"/>
<feBlend mode="normal" in="SourceGraphic" in2="BackgroundImageFix" result="shape"/>
<feGaussianBlur stdDeviation="0.5" result="effect1_foregroundBlur_177_6373"/>
</filter>
<filter id="filter10_f_177_6373" x="105.383" y="68.5352" width="12.9077" height="14.0771" filterUnits="userSpaceOnUse" color-interpolation-filters="sRGB">
<feFlood flood-opacity="0" result="BackgroundImageFix"/>
<feBlend mode="normal" in="SourceGraphic" in2="BackgroundImageFix" result="shape"/>
<feGaussianBlur stdDeviation="0.5" result="effect1_foregroundBlur_177_6373"/>
</filter>
<filter id="filter11_d_177_6373" x="20.6152" y="142" width="84.7598" height="91.75" filterUnits="userSpaceOnUse" color-interpolation-filters="sRGB">
<feFlood flood-opacity="0" result="BackgroundImageFix"/>
<feColorMatrix in="SourceAlpha" type="matrix" values="0 0 0 0 0 0 0 0 0 0 0 0 0 0 0 0 0 0 127 0" result="hardAlpha"/>
<feOffset dx="5" dy="8"/>
<feGaussianBlur stdDeviation="2.5"/>
<feComposite in2="hardAlpha" operator="out"/>
<feColorMatrix type="matrix" values="0 0 0 0 0 0 0 0 0 0 0 0 0 0 0 0 0 0 0.2 0"/>
<feBlend mode="normal" in2="BackgroundImageFix" result="effect1_dropShadow_177_6373"/>
<feBlend mode="normal" in="SourceGraphic" in2="effect1_dropShadow_177_6373" result="shape"/>
</filter>
<filter id="filter12_f_177_6373" x="77.4126" y="173.695" width="24" height="26.75" filterUnits="userSpaceOnUse" color-interpolation-filters="sRGB">
<feFlood flood-opacity="0" result="BackgroundImageFix"/>
<feBlend mode="normal" in="SourceGraphic" in2="BackgroundImageFix" result="shape"/>
<feGaussianBlur stdDeviation="0.5" result="effect1_foregroundBlur_177_6373"/>
</filter>
<filter id="filter13_f_177_6373" x="59.022" y="173.725" width="24" height="26.75" filterUnits="userSpaceOnUse" color-interpolation-filters="sRGB">
<feFlood flood-opacity="0" result="BackgroundImageFix"/>
<feBlend mode="normal" in="SourceGraphic" in2="BackgroundImageFix" result="shape"/>
<feGaussianBlur stdDeviation="0.5" result="effect1_foregroundBlur_177_6373"/>
</filter>
<radialGradient id="paint0_radial_177_6373" cx="0" cy="0" r="1" gradientUnits="userSpaceOnUse" gradientTransform="translate(34.1 49.5) rotate(90) scale(46.75)">
<stop stop-color="#A5F269"/>
<stop offset="1" stop-color="#DEF5CE"/>
</radialGradient>
<radialGradient id="paint1_radial_177_6373" cx="0" cy="0" r="1" gradientUnits="userSpaceOnUse" gradientTransform="translate(9.625) rotate(90) scale(19.25)">
<stop stop-color="white"/>
<stop offset="1" stop-color="white" stop-opacity="0.5"/>
</radialGradient>
<radialGradient id="paint2_radial_177_6373" cx="0" cy="0" r="1" gradientUnits="userSpaceOnUse" gradientTransform="translate(48.675 48.675) rotate(45) scale(43.9467)">
<stop stop-color="#FD6B5E"/>
<stop offset="1" stop-color="#FFC2B5"/>
</radialGradient>
<radialGradient id="paint3_radial_177_6373" cx="0" cy="0" r="1" gradientUnits="userSpaceOnUse" gradientTransform="translate(46.4893 45.2755) rotate(90) scale(22.4815 19.9836)">
<stop stop-color="white"/>
<stop offset="1" stop-color="white" stop-opacity="0.5"/>
</radialGradient>
<radialGradient id="paint4_radial_177_6373" cx="0" cy="0" r="1" gradientUnits="userSpaceOnUse" gradientTransform="translate(30.3604 49.6252) rotate(90) scale(22.4815 19.9836)">
<stop stop-color="white"/>
<stop offset="1" stop-color="white" stop-opacity="0.5"/>
</radialGradient>
<radialGradient id="paint5_radial_177_6373" cx="0" cy="0" r="1" gradientUnits="userSpaceOnUse" gradientTransform="translate(52.25 64.625) rotate(47.687) scale(53.9231)">
<stop stop-color="#70B3F7"/>
<stop offset="1" stop-color="#B5DCFB"/>
</radialGradient>
<radialGradient id="paint6_radial_177_6373" cx="0" cy="0" r="1" gradientUnits="userSpaceOnUse" gradientTransform="translate(11) rotate(90) scale(24.75 22)">
<stop stop-color="white"/>
<stop offset="1" stop-color="white" stop-opacity="0.5"/>
</radialGradient>
<radialGradient id="paint7_radial_177_6373" cx="0" cy="0" r="1" gradientUnits="userSpaceOnUse" gradientTransform="translate(11) rotate(90) scale(24.75 22)">
<stop stop-color="white"/>
<stop offset="1" stop-color="white" stop-opacity="0.5"/>
</radialGradient>
<radialGradient id="paint8_radial_177_6373" cx="0" cy="0" r="1" gradientUnits="userSpaceOnUse" gradientTransform="translate(16.5 20.9) rotate(113.459) scale(15.8882)">
<stop stop-color="#FE9E59"/>
<stop offset="1" stop-color="#F4CAA8"/>
</radialGradient>
<radialGradient id="paint9_radial_177_6373" cx="0" cy="0" r="1" gradientUnits="userSpaceOnUse" gradientTransform="translate(5.4046) rotate(90) scale(12.1604 10.8092)">
<stop stop-color="white"/>
<stop offset="1" stop-color="white" stop-opacity="0.5"/>
</radialGradient>
<radialGradient id="paint10_radial_177_6373" cx="0" cy="0" r="1" gradientUnits="userSpaceOnUse" gradientTransform="translate(5.4046) rotate(90) scale(12.1604 10.8092)">
<stop stop-color="white"/>
<stop offset="1" stop-color="white" stop-opacity="0.5"/>
</radialGradient>
<radialGradient id="paint11_radial_177_6373" cx="0" cy="0" r="1" gradientUnits="userSpaceOnUse" gradientTransform="translate(19.25 23.925) rotate(127.725) scale(18.4271)">
<stop stop-color="#FA81C4"/>
<stop offset="1" stop-color="#FDBAE3"/>
</radialGradient>
<radialGradient id="paint12_radial_177_6373" cx="0" cy="0" r="1" gradientUnits="userSpaceOnUse" gradientTransform="translate(62.975 64.625) rotate(43.6574) scale(49.794)">
<stop stop-color="#FFBF3B"/>
<stop offset="1" stop-color="#FEE5AC"/>
</radialGradient>
<radialGradient id="paint13_radial_177_6373" cx="0" cy="0" r="1" gradientUnits="userSpaceOnUse" gradientTransform="translate(89.4126 174.695) rotate(90) scale(24.75 22)">
<stop stop-color="white"/>
<stop offset="1" stop-color="white" stop-opacity="0.5"/>
</radialGradient>
<radialGradient id="paint14_radial_177_6373" cx="0" cy="0" r="1" gradientUnits="userSpaceOnUse" gradientTransform="translate(71.022 174.725) rotate(90) scale(24.75 22)">
<stop stop-color="white"/>
<stop offset="1" stop-color="white" stop-opacity="0.5"/>
</radialGradient>
</defs>
</svg>
