<svg width="24" height="26" viewBox="0 0 24 26" fill="none" xmlns="http://www.w3.org/2000/svg">
<path d="M17 1V6.33333M6.33333 1V6.33333M1 11.6667H22.3333M10.3333 17H11.6667V21M1 6.33333C1 5.62609 1.28095 4.94781 1.78105 4.44772C2.28115 3.94762 2.95942 3.66667 3.66667 3.66667H19.6667C20.3739 3.66667 21.0522 3.94762 21.5523 4.44772C22.0524 4.94781 22.3333 5.62609 22.3333 6.33333V22.3333C22.3333 23.0406 22.0524 23.7189 21.5523 24.219C21.0522 24.719 20.3739 25 19.6667 25H3.66667C2.95942 25 2.28115 24.719 1.78105 24.219C1.28095 23.7189 1 23.0406 1 22.3333V6.33333Z" stroke="black" stroke-width="2" stroke-linecap="round" stroke-linejoin="round"/>
</svg>
