<svg width="378" height="148" viewBox="0 0 378 148" fill="none" xmlns="http://www.w3.org/2000/svg">
<g filter="url(#filter0_d_784_1761)">
<mask id="path-1-inside-1_784_1761" fill="white">
<path d="M344 134C355.046 134 364 125.046 364 114V52C364 40.9543 355.046 32 344 32H80.4248L71.1865 16C69.647 13.3334 65.7985 13.3335 64.2588 16L55.0205 32H34C22.9543 32 14 40.9543 14 52V114C14 125.046 22.9543 134 34 134H344Z"/>
</mask>
<path d="M344 134C355.046 134 364 125.046 364 114V52C364 40.9543 355.046 32 344 32H80.4248L71.1865 16C69.647 13.3334 65.7985 13.3335 64.2588 16L55.0205 32H34C22.9543 32 14 40.9543 14 52V114C14 125.046 22.9543 134 34 134H344Z" fill="#F8F8FB"/>
<path d="M364 114H365H364ZM344 32V31V32ZM80.4248 32V33H79.8475L79.5588 32.5L80.4248 32ZM71.1865 16L70.3205 16.5L70.3205 16.5L71.1865 16ZM64.2588 16L63.3928 15.5L63.3928 15.5L64.2588 16ZM55.0205 32L55.8865 32.5L55.5978 33H55.0205V32ZM14 52H13H14ZM34 134V135V134ZM344 134V133C354.493 133 363 124.493 363 114H364H365C365 125.598 355.598 135 344 135V134ZM364 114H363V52H364H365V114H364ZM364 52H363C363 41.5066 354.493 33 344 33V32V31C355.598 31 365 40.402 365 52H364ZM344 32V33H80.4248V32V31H344V32ZM80.4248 32L79.5588 32.5L70.3205 16.5L71.1865 16L72.0525 15.5L81.2908 31.5L80.4248 32ZM71.1865 16L70.3205 16.5C69.1659 14.5001 66.2796 14.5001 65.1248 16.5L64.2588 16L63.3928 15.5C65.3173 12.1669 70.128 12.1667 72.0525 15.5L71.1865 16ZM64.2588 16L65.1248 16.5L55.8865 32.5L55.0205 32L54.1545 31.5L63.3928 15.5L64.2588 16ZM55.0205 32V33H34V32V31H55.0205V32ZM34 32V33C23.5066 33 15 41.5066 15 52H14H13C13 40.402 22.402 31 34 31V32ZM14 52H15V114H14H13V52H14ZM14 114H15C15 124.493 23.5066 133 34 133V134V135C22.402 135 13 125.598 13 114H14ZM34 134V133H344V134V135H34V134Z" fill="#B7BDCC" mask="url(#path-1-inside-1_784_1761)"/>
</g>
<defs>
<filter id="filter0_d_784_1761" x="0" y="0" width="378" height="148" filterUnits="userSpaceOnUse" color-interpolation-filters="sRGB">
<feFlood flood-opacity="0" result="BackgroundImageFix"/>
<feColorMatrix in="SourceAlpha" type="matrix" values="0 0 0 0 0 0 0 0 0 0 0 0 0 0 0 0 0 0 127 0" result="hardAlpha"/>
<feOffset/>
<feGaussianBlur stdDeviation="7"/>
<feComposite in2="hardAlpha" operator="out"/>
<feColorMatrix type="matrix" values="0 0 0 0 0.721926 0 0 0 0 0.713579 0 0 0 0 0.773203 0 0 0 0.2 0"/>
<feBlend mode="normal" in2="BackgroundImageFix" result="effect1_dropShadow_784_1761"/>
<feBlend mode="normal" in="SourceGraphic" in2="effect1_dropShadow_784_1761" result="shape"/>
</filter>
</defs>
</svg>
