<svg width="27" height="27" viewBox="0 0 27 27" fill="none" xmlns="http://www.w3.org/2000/svg">
<path d="M3.74149 4.02548C4.97374 2.76159 6.44469 1.75497 8.06901 1.06399C9.69332 0.373019 11.4387 0.0114526 13.2038 0.000267695C14.969 -0.0109172 16.7188 0.328502 18.3517 0.998836C19.9846 1.66917 21.4682 2.65707 22.7164 3.90524C23.9646 5.15341 24.9525 6.637 25.6228 8.26994C26.2931 9.90288 26.6326 11.6527 26.6214 13.4178C26.6102 15.183 26.2486 16.9283 25.5576 18.5526C24.8667 20.1769 23.86 21.6479 22.5962 22.8801C20.0815 25.3089 16.7134 26.6528 13.2175 26.6225C9.72152 26.5921 6.37735 25.1898 3.90524 22.7177C1.43314 20.2456 0.030883 16.9015 0.000504035 13.4055C-0.0298749 9.90954 1.31405 6.54151 3.74282 4.02681L3.74149 4.02548ZM14.5028 9.45348C14.5028 9.09986 14.3623 8.76072 14.1123 8.51067C13.8623 8.26062 13.5231 8.12015 13.1695 8.12015C12.8159 8.12015 12.4767 8.26062 12.2267 8.51067C11.9766 8.76072 11.8362 9.09986 11.8362 9.45348V12.1201H9.16949C8.81587 12.1201 8.47673 12.2606 8.22668 12.5107C7.97663 12.7607 7.83616 13.0999 7.83616 13.4535C7.83616 13.8071 7.97663 14.1462 8.22668 14.3963C8.47673 14.6463 8.81587 14.7868 9.16949 14.7868H11.8362V17.4535C11.8362 17.8071 11.9766 18.1462 12.2267 18.3963C12.4767 18.6463 12.8159 18.7868 13.1695 18.7868C13.5231 18.7868 13.8623 18.6463 14.1123 18.3963C14.3623 18.1462 14.5028 17.8071 14.5028 17.4535V14.7868H17.1695C17.5231 14.7868 17.8623 14.6463 18.1123 14.3963C18.3623 14.1462 18.5028 13.8071 18.5028 13.4535C18.5028 13.0999 18.3623 12.7607 18.1123 12.5107C17.8623 12.2606 17.5231 12.1201 17.1695 12.1201H14.5028V9.45348Z" fill="#FA81C4"/>
</svg>
