<svg width="22" height="27" viewBox="0 0 22 27" fill="none" xmlns="http://www.w3.org/2000/svg">
<path d="M6.66671 4H4.00004C3.2928 4 2.61452 4.28095 2.11442 4.78105C1.61433 5.28115 1.33337 5.95942 1.33337 6.66667V22.6667C1.33337 23.3739 1.61433 24.0522 2.11442 24.5523C2.61452 25.0524 3.2928 25.3333 4.00004 25.3333H17.3334C18.0406 25.3333 18.7189 25.0524 19.219 24.5523C19.7191 24.0522 20 23.3739 20 22.6667V6.66667C20 5.95942 19.7191 5.28115 19.219 4.78105C18.7189 4.28095 18.0406 4 17.3334 4H14.6667" stroke="#9C9C9C" stroke-width="2.66667" stroke-linecap="round" stroke-linejoin="round"/>
<path d="M6.66675 13.3333H14.6667M6.66675 18.6666H14.6667M6.66675 3.99998C6.66675 3.29274 6.9477 2.61446 7.4478 2.11436C7.94789 1.61426 8.62617 1.33331 9.33341 1.33331H12.0001C12.7073 1.33331 13.3856 1.61426 13.8857 2.11436C14.3858 2.61446 14.6667 3.29274 14.6667 3.99998C14.6667 4.70722 14.3858 5.3855 13.8857 5.8856C13.3856 6.3857 12.7073 6.66665 12.0001 6.66665H9.33341C8.62617 6.66665 7.94789 6.3857 7.4478 5.8856C6.9477 5.3855 6.66675 4.70722 6.66675 3.99998Z" stroke="#9C9C9C" stroke-width="2.66667" stroke-linecap="round" stroke-linejoin="round"/>
</svg>
