<svg width="27" height="24" viewBox="0 0 27 24" fill="none" xmlns="http://www.w3.org/2000/svg">
<path d="M9.33337 21.3333V13.3333C9.33337 12.9797 9.1929 12.6406 8.94285 12.3905C8.6928 12.1405 8.35366 12 8.00004 12H2.66671C2.31309 12 1.97395 12.1405 1.7239 12.3905C1.47385 12.6406 1.33337 12.9797 1.33337 13.3333V21.3333C1.33337 21.6869 1.47385 22.0261 1.7239 22.2761C1.97395 22.5262 2.31309 22.6666 2.66671 22.6666M9.33337 21.3333C9.33337 21.6869 9.1929 22.0261 8.94285 22.2761C8.6928 22.5262 8.35366 22.6666 8.00004 22.6666H2.66671M9.33337 21.3333C9.33337 21.6869 9.47385 22.0261 9.7239 22.2761C9.97395 22.5262 10.3131 22.6666 10.6667 22.6666H16C16.3537 22.6666 16.6928 22.5262 16.9428 22.2761C17.1929 22.0261 17.3334 21.6869 17.3334 21.3333M9.33337 21.3333V7.99998C9.33337 7.64636 9.47385 7.30722 9.7239 7.05717C9.97395 6.80712 10.3131 6.66665 10.6667 6.66665H16C16.3537 6.66665 16.6928 6.80712 16.9428 7.05717C17.1929 7.30722 17.3334 7.64636 17.3334 7.99998V21.3333M2.66671 22.6666H21.3334M17.3334 21.3333C17.3334 21.6869 17.4739 22.0261 17.7239 22.2761C17.9739 22.5262 18.3131 22.6666 18.6667 22.6666H24C24.3537 22.6666 24.6928 22.5262 24.9429 22.2761C25.1929 22.0261 25.3334 21.6869 25.3334 21.3333V2.66665C25.3334 2.31302 25.1929 1.97389 24.9429 1.72384C24.6928 1.47379 24.3537 1.33331 24 1.33331H18.6667C18.3131 1.33331 17.9739 1.47379 17.7239 1.72384C17.4739 1.97389 17.3334 2.31302 17.3334 2.66665V21.3333Z" stroke="#9C9C9C" stroke-width="2.66667" stroke-linecap="round" stroke-linejoin="round"/>
</svg>
