<svg width="27" height="26" viewBox="0 0 27 26" fill="none" xmlns="http://www.w3.org/2000/svg">
<path d="M10.0002 7.99992H10.0135M16.6668 7.99992H16.6802M21.3335 1.33325C22.3944 1.33325 23.4118 1.75468 24.1619 2.50482C24.9121 3.25497 25.3335 4.27239 25.3335 5.33325V15.9999C25.3335 17.0608 24.9121 18.0782 24.1619 18.8283C23.4118 19.5785 22.3944 19.9999 21.3335 19.9999H14.6668L8.00016 23.9999V19.9999H5.3335C4.27263 19.9999 3.25521 19.5785 2.50507 18.8283C1.75492 18.0782 1.3335 17.0608 1.3335 15.9999V5.33325C1.3335 4.27239 1.75492 3.25497 2.50507 2.50482C3.25521 1.75468 4.27263 1.33325 5.3335 1.33325H21.3335Z" stroke="#9C9C9C" stroke-width="2.66667" stroke-linecap="round" stroke-linejoin="round"/>
</svg>
