<svg width="27" height="27" viewBox="0 0 27 27" fill="none" xmlns="http://www.w3.org/2000/svg">
<path d="M4.00004 13.3333H1.33337L13.3334 1.33331L25.3334 13.3333H22.6667M4.00004 13.3333V22.6666C4.00004 23.3739 4.28099 24.0522 4.78109 24.5523C5.28119 25.0524 5.95946 25.3333 6.66671 25.3333H20C20.7073 25.3333 21.3856 25.0524 21.8857 24.5523C22.3858 24.0522 22.6667 23.3739 22.6667 22.6666V13.3333" stroke="#9C9C9C" stroke-width="2.66667" stroke-linecap="round" stroke-linejoin="round"/>
<path d="M9.33337 25.3333V17.3333C9.33337 16.626 9.61433 15.9478 10.1144 15.4477C10.6145 14.9476 11.2928 14.6666 12 14.6666H14.6667C15.374 14.6666 16.0522 14.9476 16.5523 15.4477C17.0524 15.9478 17.3334 16.626 17.3334 17.3333V25.3333" stroke="#9C9C9C" stroke-width="2.66667" stroke-linecap="round" stroke-linejoin="round"/>
</svg>
