<svg width="24" height="28" viewBox="0 0 24 28" fill="none" xmlns="http://www.w3.org/2000/svg">
<path d="M8 11.9996C8 13.0604 8.42143 14.0779 9.17157 14.828C9.92172 15.5781 10.9391 15.9996 12 15.9996C13.0609 15.9996 14.0783 15.5781 14.8284 14.828C15.5786 14.0779 16 13.0604 16 11.9996C16 10.9387 15.5786 9.92129 14.8284 9.17115C14.0783 8.421 13.0609 7.99957 12 7.99957C10.9391 7.99957 9.92172 8.421 9.17157 9.17115C8.42143 9.92129 8 10.9387 8 11.9996Z" stroke="#9C9C9C" stroke-width="2.66667" stroke-linecap="round" stroke-linejoin="round"/>
<path d="M19.5427 19.5423L13.8854 25.1996C13.3854 25.6991 12.7075 25.9797 12.0007 25.9797C11.2939 25.9797 10.6161 25.6991 10.116 25.1996L4.45738 19.5423C2.96567 18.0505 1.94983 16.1499 1.5383 14.0807C1.12676 12.0116 1.33803 9.86694 2.14538 7.9179C2.95273 5.96885 4.31991 4.30298 6.07402 3.13093C7.82813 1.95889 9.8904 1.33331 12 1.33331C14.1097 1.33331 16.172 1.95889 17.9261 3.13093C19.6802 4.30298 21.0474 5.96885 21.8547 7.9179C22.6621 9.86694 22.8733 12.0116 22.4618 14.0807C22.0503 16.1499 21.0344 18.0505 19.5427 19.5423Z" stroke="#9C9C9C" stroke-width="2.66667" stroke-linecap="round" stroke-linejoin="round"/>
</svg>
