<svg width="19" height="27" viewBox="0 0 19 27" fill="none" xmlns="http://www.w3.org/2000/svg">
<path d="M1.33337 25.3333V22.6666C1.33337 21.2522 1.89528 19.8956 2.89547 18.8954C3.89567 17.8952 5.25222 17.3333 6.66671 17.3333H12C13.4145 17.3333 14.7711 17.8952 15.7713 18.8954C16.7715 19.8956 17.3334 21.2522 17.3334 22.6666V25.3333M4.00004 6.66665C4.00004 8.08113 4.56194 9.43769 5.56214 10.4379C6.56233 11.4381 7.91889 12 9.33337 12C10.7479 12 12.1044 11.4381 13.1046 10.4379C14.1048 9.43769 14.6667 8.08113 14.6667 6.66665C14.6667 5.25216 14.1048 3.8956 13.1046 2.89541C12.1044 1.89522 10.7479 1.33331 9.33337 1.33331C7.91889 1.33331 6.56233 1.89522 5.56214 2.89541C4.56194 3.8956 4.00004 5.25216 4.00004 6.66665Z" stroke="#9C9C9C" stroke-width="2.66667" stroke-linecap="round" stroke-linejoin="round"/>
</svg>
