<svg width="50" height="50" viewBox="0 0 50 50" fill="none" xmlns="http://www.w3.org/2000/svg">
<path d="M17.1735 15.2915L3.88186 17.2186L3.64644 17.2665C3.29007 17.3611 2.96518 17.5486 2.70497 17.8098C2.44476 18.0711 2.25853 18.3967 2.16532 18.7534C2.07211 19.1102 2.07525 19.4853 2.17442 19.8404C2.27359 20.1955 2.46523 20.518 2.72978 20.7748L12.3589 30.1478L10.0881 43.3873L10.061 43.6165C10.0392 43.9851 10.1157 44.3529 10.2828 44.6821C10.4498 45.0114 10.7014 45.2904 11.0117 45.4905C11.322 45.6906 11.68 45.8046 12.0488 45.8209C12.4177 45.8372 12.7843 45.7551 13.111 45.5832L24.9985 39.3332L36.8589 45.5832L37.0673 45.679C37.4112 45.8145 37.7849 45.856 38.1501 45.7993C38.5153 45.7427 38.8589 45.5899 39.1456 45.3566C39.4323 45.1234 39.6518 44.8181 39.7815 44.472C39.9113 44.1259 39.9466 43.7516 39.8839 43.3873L37.611 30.1478L47.2444 20.7728L47.4069 20.5957C47.639 20.3098 47.7912 19.9674 47.8479 19.6036C47.9047 19.2397 47.864 18.8673 47.73 18.5243C47.5959 18.1813 47.3734 17.8799 47.085 17.6509C46.7965 17.4219 46.4526 17.2735 46.0881 17.2207L32.7964 15.2915L26.8548 3.24984C26.6829 2.90095 26.4167 2.60716 26.0864 2.40172C25.7562 2.19628 25.375 2.0874 24.986 2.0874C24.5971 2.0874 24.2159 2.19628 23.8856 2.40172C23.5554 2.60716 23.2892 2.90095 23.1173 3.24984L17.1735 15.2915Z" fill="url(#paint0_linear_394_5415)"/>
<defs>
<linearGradient id="paint0_linear_394_5415" x1="48" y1="2" x2="2" y2="46" gradientUnits="userSpaceOnUse">
<stop stop-color="#9C9C9C"/>
<stop offset="1" stop-color="#D9D9D9"/>
</linearGradient>
</defs>
</svg>
