<svg width="54" height="54" viewBox="0 0 54 54" fill="none" xmlns="http://www.w3.org/2000/svg">
<g filter="url(#filter0_f_960_589)">
<circle cx="27" cy="27" r="25" fill="white"/>
<circle cx="27" cy="27" r="24.5" stroke="#B7BDCC"/>
</g>
<g filter="url(#filter1_f_960_589)">
<path d="M38.25 27.858L27 39L15.75 27.858C15.0079 27.1359 14.4234 26.268 14.0333 25.309C13.6431 24.3499 13.4558 23.3204 13.4831 22.2854C13.5103 21.2504 13.7516 20.2322 14.1917 19.295C14.6318 18.3578 15.2612 17.5219 16.0402 16.8399C16.8192 16.1579 17.731 15.6446 18.7182 15.3322C19.7053 15.0199 20.7465 14.9154 21.776 15.0252C22.8056 15.135 23.8012 15.4569 24.7003 15.9704C25.5993 16.4839 26.3823 17.178 27 18.009C27.6203 17.1841 28.4042 16.496 29.3026 15.9879C30.2011 15.4799 31.1947 15.1627 32.2214 15.0563C33.248 14.9499 34.2856 15.0566 35.2691 15.3696C36.2527 15.6826 37.161 16.1953 37.9373 16.8756C38.7136 17.5558 39.3411 18.3889 39.7806 19.3229C40.2201 20.2568 40.4621 21.2713 40.4914 22.3031C40.5208 23.3348 40.3369 24.3615 39.9512 25.3189C39.5655 26.2763 38.9863 27.1438 38.25 27.867" stroke="#009900" stroke-opacity="0.3" stroke-width="3" stroke-linecap="round" stroke-linejoin="round"/>
</g>
<defs>
<filter id="filter0_f_960_589" x="0" y="0" width="54" height="54" filterUnits="userSpaceOnUse" color-interpolation-filters="sRGB">
<feFlood flood-opacity="0" result="BackgroundImageFix"/>
<feBlend mode="normal" in="SourceGraphic" in2="BackgroundImageFix" result="shape"/>
<feGaussianBlur stdDeviation="1" result="effect1_foregroundBlur_960_589"/>
</filter>
<filter id="filter1_f_960_589" x="8" y="8" width="38" height="38" filterUnits="userSpaceOnUse" color-interpolation-filters="sRGB">
<feFlood flood-opacity="0" result="BackgroundImageFix"/>
<feBlend mode="normal" in="SourceGraphic" in2="BackgroundImageFix" result="shape"/>
<feGaussianBlur stdDeviation="0.5" result="effect1_foregroundBlur_960_589"/>
</filter>
</defs>
</svg>
