<svg width="22" height="27" viewBox="0 0 22 27" fill="none" xmlns="http://www.w3.org/2000/svg">
<path d="M18.6627 2.89333C19.4436 3.16851 20.1199 3.67927 20.5983 4.35513C21.0767 5.03099 21.3335 5.83865 21.3333 6.66667V22.6667C21.3333 23.7275 20.9119 24.7449 20.1618 25.4951C19.4116 26.2452 18.3942 26.6667 17.3333 26.6667H4C2.93913 26.6667 1.92172 26.2452 1.17157 25.4951C0.421428 24.7449 5.87401e-08 23.7275 5.87401e-08 22.6667V6.66667C-0.000141805 5.83865 0.256683 5.03099 0.735041 4.35513C1.2134 3.67927 1.88971 3.16851 2.67067 2.89333C2.72912 4.26748 3.31618 5.56591 4.30925 6.51749C5.30232 7.46907 6.62461 8.00021 8 8H13.3333C14.6549 8.00012 15.9294 7.50958 16.9098 6.62348C17.8903 5.73737 18.5069 4.51882 18.64 3.204L18.6627 2.89333ZM14.6667 17.3333H6.66667C6.31305 17.3333 5.97391 17.4738 5.72386 17.7239C5.47381 17.9739 5.33333 18.313 5.33333 18.6667C5.33333 19.0203 5.47381 19.3594 5.72386 19.6095C5.97391 19.8595 6.31305 20 6.66667 20H14.6667C15.0203 20 15.3594 19.8595 15.6095 19.6095C15.8595 19.3594 16 19.0203 16 18.6667C16 18.313 15.8595 17.9739 15.6095 17.7239C15.3594 17.4738 15.0203 17.3333 14.6667 17.3333ZM14.6667 12H6.66667C6.31305 12 5.97391 12.1405 5.72386 12.3905C5.47381 12.6406 5.33333 12.9797 5.33333 13.3333C5.33333 13.687 5.47381 14.0261 5.72386 14.2761C5.97391 14.5262 6.31305 14.6667 6.66667 14.6667H14.6667C15.0203 14.6667 15.3594 14.5262 15.6095 14.2761C15.8595 14.0261 16 13.687 16 13.3333C16 12.9797 15.8595 12.6406 15.6095 12.3905C15.3594 12.1405 15.0203 12 14.6667 12ZM13.3333 0C14.0406 0 14.7189 0.280951 15.219 0.781048C15.719 1.28115 16 1.95942 16 2.66667C16 3.37391 15.719 4.05219 15.219 4.55228C14.7189 5.05238 14.0406 5.33333 13.3333 5.33333H8C7.29276 5.33333 6.61448 5.05238 6.11438 4.55228C5.61429 4.05219 5.33333 3.37391 5.33333 2.66667C5.33333 1.95942 5.61429 1.28115 6.11438 0.781048C6.61448 0.280951 7.29276 0 8 0H13.3333Z" fill="#009900"/>
</svg>
