<svg width="27" height="24" viewBox="0 0 27 24" fill="none" xmlns="http://www.w3.org/2000/svg">
<path d="M9.33337 21.3334V13.3334C9.33337 12.9798 9.1929 12.6406 8.94285 12.3906C8.6928 12.1405 8.35366 12 8.00004 12H2.66671C2.31309 12 1.97395 12.1405 1.7239 12.3906C1.47385 12.6406 1.33337 12.9798 1.33337 13.3334V21.3334C1.33337 21.687 1.47385 22.0261 1.7239 22.2762C1.97395 22.5262 2.31309 22.6667 2.66671 22.6667M9.33337 21.3334C9.33337 21.687 9.1929 22.0261 8.94285 22.2762C8.6928 22.5262 8.35366 22.6667 8.00004 22.6667H2.66671M9.33337 21.3334C9.33337 21.687 9.47385 22.0261 9.7239 22.2762C9.97395 22.5262 10.3131 22.6667 10.6667 22.6667H16C16.3537 22.6667 16.6928 22.5262 16.9428 22.2762C17.1929 22.0261 17.3334 21.687 17.3334 21.3334M9.33337 21.3334V8.00004C9.33337 7.64642 9.47385 7.30728 9.7239 7.05723C9.97395 6.80718 10.3131 6.66671 10.6667 6.66671H16C16.3537 6.66671 16.6928 6.80718 16.9428 7.05723C17.1929 7.30728 17.3334 7.64642 17.3334 8.00004V21.3334M2.66671 22.6667H21.3334M17.3334 21.3334C17.3334 21.687 17.4739 22.0261 17.7239 22.2762C17.9739 22.5262 18.3131 22.6667 18.6667 22.6667H24C24.3537 22.6667 24.6928 22.5262 24.9429 22.2762C25.1929 22.0261 25.3334 21.687 25.3334 21.3334V2.66671C25.3334 2.31309 25.1929 1.97395 24.9429 1.7239C24.6928 1.47385 24.3537 1.33337 24 1.33337H18.6667C18.3131 1.33337 17.9739 1.47385 17.7239 1.7239C17.4739 1.97395 17.3334 2.31309 17.3334 2.66671V21.3334Z" stroke="#009900" stroke-width="2.66667" stroke-linecap="round" stroke-linejoin="round"/>
</svg>
