<svg width="32" height="32" viewBox="0 0 32 32" fill="none" xmlns="http://www.w3.org/2000/svg">
<path d="M23.9998 4C25.4143 4 26.7709 4.5619 27.7711 5.5621C28.7713 6.56229 29.3332 7.91885 29.3332 9.33333V20C29.3332 21.4145 28.7713 22.771 27.7711 23.7712C26.7709 24.7714 25.4143 25.3333 23.9998 25.3333H17.7012L11.3518 29.1427C11.1606 29.2574 10.9437 29.3224 10.7209 29.3316C10.4981 29.3408 10.2765 29.294 10.0764 29.1954C9.87641 29.0969 9.70428 28.9497 9.57583 28.7674C9.44737 28.5851 9.36669 28.3735 9.34117 28.152L9.33317 28V25.3333H7.99984C6.63151 25.3333 5.31553 24.8074 4.32409 23.8644C3.33264 22.9213 2.74159 21.6333 2.67317 20.2667L2.6665 20V9.33333C2.6665 7.91885 3.22841 6.56229 4.2286 5.5621C5.2288 4.5619 6.58535 4 7.99984 4H23.9998ZM20.2665 16.3813C20.014 16.1338 19.6735 15.9968 19.32 16.0003C18.9664 16.0038 18.6287 16.1475 18.3812 16.4C18.0708 16.7169 17.7003 16.9686 17.2914 17.1405C16.8825 17.3123 16.4434 17.4009 15.9998 17.4009C15.5563 17.4009 15.1172 17.3123 14.7083 17.1405C14.2994 16.9686 13.9289 16.7169 13.6185 16.4C13.3697 16.1534 13.0338 16.0146 12.6835 16.0136C12.3332 16.0126 11.9966 16.1496 11.7464 16.3948C11.4963 16.6401 11.3527 16.9739 11.3467 17.3242C11.3407 17.6745 11.4728 18.013 11.7145 18.2667C12.2731 18.8367 12.9399 19.2896 13.6757 19.5987C14.4116 19.9079 15.2017 20.0672 15.9998 20.0672C16.798 20.0672 17.5881 19.9079 18.3239 19.5987C19.0598 19.2896 19.7265 18.8367 20.2852 18.2667C20.5327 18.0142 20.6697 17.6737 20.6662 17.3201C20.6627 16.9666 20.519 16.6289 20.2665 16.3813ZM12.6798 10.6667H12.6665C12.3129 10.6667 11.9737 10.8071 11.7237 11.0572C11.4736 11.3072 11.3332 11.6464 11.3332 12C11.3332 12.3536 11.4736 12.6928 11.7237 12.9428C11.9737 13.1929 12.3129 13.3333 12.6665 13.3333H12.6798C13.0335 13.3333 13.3726 13.1929 13.6226 12.9428C13.8727 12.6928 14.0132 12.3536 14.0132 12C14.0132 11.6464 13.8727 11.3072 13.6226 11.0572C13.3726 10.8071 13.0335 10.6667 12.6798 10.6667ZM19.3465 10.6667H19.3332C18.9795 10.6667 18.6404 10.8071 18.3904 11.0572C18.1403 11.3072 17.9998 11.6464 17.9998 12C17.9998 12.3536 18.1403 12.6928 18.3904 12.9428C18.6404 13.1929 18.9795 13.3333 19.3332 13.3333H19.3465C19.7001 13.3333 20.0393 13.1929 20.2893 12.9428C20.5394 12.6928 20.6798 12.3536 20.6798 12C20.6798 11.6464 20.5394 11.3072 20.2893 11.0572C20.0393 10.8071 19.7001 10.6667 19.3465 10.6667Z" fill="#009900"/>
</svg>
