<svg width="32" height="32" viewBox="0 0 32 32" fill="none" xmlns="http://www.w3.org/2000/svg">
<path d="M24.4853 6.18131C26.6884 8.38415 27.9484 11.3575 27.9989 14.4725C28.0494 17.5876 26.8865 20.6002 24.756 22.8733L24.4853 23.1533L18.828 28.8093C18.1101 29.5267 17.1465 29.9444 16.1322 29.9778C15.1179 30.0112 14.1288 29.6579 13.3653 28.9893L13.1733 28.8093L7.51462 23.152C5.26417 20.9015 3.99988 17.8493 3.99988 14.6666C3.99988 11.484 5.26417 8.43176 7.51462 6.18131C9.76507 3.93086 12.8173 2.66656 16 2.66656C19.1826 2.66656 22.2348 3.93086 24.4853 6.18131ZM16 10.6666C15.4747 10.6666 14.9545 10.7701 14.4692 10.9711C13.9839 11.1721 13.543 11.4668 13.1715 11.8382C12.8001 12.2096 12.5055 12.6506 12.3044 13.1359C12.1034 13.6212 12 14.1414 12 14.6666C12 15.1919 12.1034 15.7121 12.3044 16.1974C12.5055 16.6827 12.8001 17.1236 13.1715 17.4951C13.543 17.8665 13.9839 18.1611 14.4692 18.3622C14.9545 18.5632 15.4747 18.6666 16 18.6666C17.0608 18.6666 18.0782 18.2452 18.8284 17.4951C19.5785 16.7449 20 15.7275 20 14.6666C20 13.6058 19.5785 12.5884 18.8284 11.8382C18.0782 11.0881 17.0608 10.6666 16 10.6666Z" fill="#009900"/>
</svg>
