<svg width="19" height="27" viewBox="0 0 19 27" fill="none" xmlns="http://www.w3.org/2000/svg">
<path d="M9.33333 0C10.6519 0 11.9408 0.390993 13.0371 1.12354C14.1335 1.85608 14.9879 2.89727 15.4925 4.11544C15.9971 5.33362 16.1291 6.67406 15.8719 7.96727C15.6147 9.26048 14.9797 10.4484 14.0474 11.3807C13.115 12.3131 11.9271 12.948 10.6339 13.2052C9.34073 13.4625 8.00028 13.3304 6.78211 12.8259C5.56394 12.3213 4.52275 11.4668 3.7902 10.3705C3.05766 9.27414 2.66667 7.98521 2.66667 6.66667L2.67333 6.37733C2.74789 4.661 3.48214 3.0397 4.72296 1.85155C5.96378 0.663389 7.61538 9.92566e-05 9.33333 0ZM12 16C13.7681 16 15.4638 16.7024 16.714 17.9526C17.9643 19.2029 18.6667 20.8986 18.6667 22.6667V24C18.6667 24.7072 18.3857 25.3855 17.8856 25.8856C17.3855 26.3857 16.7072 26.6667 16 26.6667H2.66667C1.95942 26.6667 1.28115 26.3857 0.781048 25.8856C0.280951 25.3855 0 24.7072 0 24V22.6667C0 20.8986 0.702379 19.2029 1.95262 17.9526C3.20286 16.7024 4.89856 16 6.66667 16H12Z" fill="#009900"/>
</svg>
